<svg version="1.1" viewBox="0.0 0.0 733.2808398950132 531.2257217847769" fill="none" stroke="none" stroke-linecap="square" stroke-miterlimit="10" xmlns:xlink="http://www.w3.org/1999/xlink" xmlns="http://www.w3.org/2000/svg"><clipPath id="p.0"><path d="m0 0l733.2808 0l0 531.2257l-733.2808 0l0 -531.2257z" clip-rule="nonzero"/></clipPath><g clip-path="url(#p.0)"><path fill="#ffffff" d="m0 0l733.2808 0l0 531.2257l-733.2808 0z" fill-rule="evenodd"/><path fill="#000000" fill-opacity="0.0" d="m15.706037 68.79356l0 0c0 -24.982327 20.252178 -45.2345 45.2345 -45.2345l180.93257 0l0 0c11.996933 0 23.502502 4.765764 31.985626 13.2488785c8.483124 8.483112 13.248871 19.988686 13.248871 31.985622l0 392.30267c0 24.9823 -20.252167 45.234497 -45.234497 45.234497l-180.93257 0c-24.982323 0 -45.2345 -20.252197 -45.2345 -45.234497z" fill-rule="evenodd"/><path stroke="#000000" stroke-width="1.0" stroke-linejoin="round" stroke-linecap="butt" d="m15.706037 68.79356l0 0c0 -24.982327 20.252178 -45.2345 45.2345 -45.2345l180.93257 0l0 0c11.996933 0 23.502502 4.765764 31.985626 13.2488785c8.483124 8.483112 13.248871 19.988686 13.248871 31.985622l0 392.30267c0 24.9823 -20.252167 45.234497 -45.234497 45.234497l-180.93257 0c-24.982323 0 -45.2345 -20.252197 -45.2345 -45.234497z" fill-rule="evenodd"/><path fill="#000000" fill-opacity="0.0" d="m128.4252 199.37053l0 0c0 -12.617264 10.228317 -22.845596 22.845596 -22.845596l91.37967 0l0 0c6.059021 0 11.869888 2.4069366 16.154282 6.69133c4.284363 4.284378 6.6913147 10.095245 6.6913147 16.154266l0 258.74976c0 12.617279 -10.228317 22.845612 -22.845596 22.845612l-91.37967 0c-12.617279 0 -22.845596 -10.2283325 -22.845596 -22.845612z" fill-rule="evenodd"/><path stroke="#000000" stroke-width="1.0" stroke-linejoin="round" stroke-linecap="butt" d="m128.4252 199.37053l0 0c0 -12.617264 10.228317 -22.845596 22.845596 -22.845596l91.37967 0l0 0c6.059021 0 11.869888 2.4069366 16.154282 6.69133c4.284363 4.284378 6.6913147 10.095245 6.6913147 16.154266l0 258.74976c0 12.617279 -10.228317 22.845612 -22.845596 22.845612l-91.37967 0c-12.617279 0 -22.845596 -10.2283325 -22.845596 -22.845612z" fill-rule="evenodd"/><path fill="#000000" fill-opacity="0.0" d="m537.51184 51.186905l0 0c0 -15.258442 12.369385 -27.62785 27.627808 -27.62785l110.50812 0l0 0c7.3273315 0 14.354614 2.9107819 19.535828 8.092009c5.1812134 5.1812267 8.09198 12.208479 8.09198 19.535841l0 162.3506c0 15.258438 -12.369385 27.627853 -27.627808 27.627853l-110.50812 0c-15.258423 0 -27.627808 -12.369415 -27.627808 -27.627853z" fill-rule="evenodd"/><path stroke="#000000" stroke-width="1.0" stroke-linejoin="round" stroke-linecap="butt" d="m537.51184 51.186905l0 0c0 -15.258442 12.369385 -27.62785 27.627808 -27.62785l110.50812 0l0 0c7.3273315 0 14.354614 2.9107819 19.535828 8.092009c5.1812134 5.1812267 8.09198 12.208479 8.09198 19.535841l0 162.3506c0 15.258438 -12.369385 27.627853 -27.627808 27.627853l-110.50812 0c-15.258423 0 -27.627808 -12.369415 -27.627808 -27.627853z" fill-rule="evenodd"/><path fill="#000000" fill-opacity="0.0" d="m134.31496 182.02362l103.055115 0l0 64.62993l-103.055115 0z" fill-rule="evenodd"/><path fill="#000000" d="m151.98683 200.178q-0.78125 2.5 -1.59375 4.625q-0.796875 2.125 -1.59375 4.140625l-1.8125 0q-0.984375 -2.859375 -1.75 -6.03125q-0.75 -3.171875 -1.40625 -6.890625l1.90625 0q0.265625 1.453125 0.546875 2.90625q0.28125 1.453125 0.578125 2.828125q0.296875 1.359375 0.59375 2.609375q0.296875 1.25 0.609375 2.328125q0.75 -1.96875 1.59375 -4.3125q0.84375 -2.34375 1.5625 -4.84375l1.578125 0q0.71875 2.5 1.578125 4.84375q0.859375 2.34375 1.609375 4.3125q0.296875 -1.046875 0.59375 -2.296875q0.296875 -1.25 0.578125 -2.625q0.296875 -1.375 0.578125 -2.828125q0.28125 -1.46875 0.546875 -2.921875l1.84375 0q-0.671875 3.71875 -1.4375 6.890625q-0.75 3.171875 -1.71875 6.03125l-1.8125 0q-0.8125 -2.015625 -1.609375 -4.140625q-0.78125 -2.125 -1.5625 -4.625zm9.202255 3.9375q0 -1.296875 0.375 -2.25q0.375 -0.96875 0.984375 -1.59375q0.609375 -0.640625 1.40625 -0.953125q0.8125 -0.3125 1.65625 -0.3125q1.953125 0 3.0 1.21875q1.046875 1.21875 1.046875 3.71875q0 0.109375 0 0.296875q0 0.171875 -0.015625 0.3125l-6.640625 0q0.109375 1.515625 0.875 2.296875q0.765625 0.78125 2.390625 0.78125q0.90625 0 1.53125 -0.15625q0.625 -0.15625 0.9375 -0.296875l0.25 1.453125q-0.3125 0.15625 -1.109375 0.34375q-0.796875 0.1875 -1.796875 0.1875q-1.265625 0 -2.203125 -0.375q-0.921875 -0.390625 -1.515625 -1.0625q-0.59375 -0.671875 -0.890625 -1.59375q-0.28125 -0.921875 -0.28125 -2.015625zm6.65625 -0.953125q0.015625 -1.171875 -0.59375 -1.921875q-0.59375 -0.765625 -1.65625 -0.765625q-0.609375 0 -1.0625 0.234375q-0.453125 0.234375 -0.78125 0.609375q-0.3125 0.375 -0.484375 0.859375q-0.171875 0.484375 -0.234375 0.984375l4.8125 0zm6.0538483 -3.484375q0.3125 -0.21875 0.953125 -0.4375q0.640625 -0.21875 1.484375 -0.21875q1.046875 0 1.859375 0.375q0.8125 0.375 1.359375 1.046875q0.5625 0.671875 0.84375 1.609375q0.296875 0.921875 0.296875 2.046875q0 1.171875 -0.34375 2.109375q-0.34375 0.9375 -0.984375 1.59375q-0.625 0.65625 -1.53125 1.015625q-0.890625 0.34375 -2.0 0.34375q-1.21875 0 -2.15625 -0.171875q-0.921875 -0.15625 -1.515625 -0.328125l0 -13.890625l1.734375 -0.3125l0 5.21875zm0 7.75q0.25 0.078125 0.71875 0.140625q0.484375 0.0625 1.203125 0.0625q1.390625 0 2.234375 -0.921875q0.84375 -0.921875 0.84375 -2.609375q0 -0.75 -0.15625 -1.40625q-0.15625 -0.65625 -0.5 -1.125q-0.328125 -0.484375 -0.859375 -0.75q-0.53125 -0.265625 -1.265625 -0.265625q-0.71875 0 -1.3125 0.25q-0.59375 0.234375 -0.90625 0.484375l0 6.140625z" fill-rule="nonzero"/><path fill="#000000" d="m151.98683 222.57799q-0.78125 2.5 -1.59375 4.625q-0.796875 2.125 -1.59375 4.140625l-1.8125 0q-0.984375 -2.859375 -1.75 -6.03125q-0.75 -3.171875 -1.40625 -6.890625l1.90625 0q0.265625 1.453125 0.546875 2.90625q0.28125 1.453125 0.578125 2.828125q0.296875 1.359375 0.59375 2.609375q0.296875 1.25 0.609375 2.328125q0.75 -1.96875 1.59375 -4.3125q0.84375 -2.34375 1.5625 -4.84375l1.578125 0q0.71875 2.5 1.578125 4.84375q0.859375 2.34375 1.609375 4.3125q0.296875 -1.046875 0.59375 -2.296875q0.296875 -1.25 0.578125 -2.625q0.296875 -1.375 0.578125 -2.828125q0.28125 -1.46875 0.546875 -2.921875l1.84375 0q-0.671875 3.71875 -1.4375 6.890625q-0.75 3.171875 -1.71875 6.03125l-1.8125 0q-0.8125 -2.015625 -1.609375 -4.140625q-0.78125 -2.125 -1.5625 -4.625zm18.31163 3.921875q0 1.15625 -0.34375 2.09375q-0.328125 0.921875 -0.9375 1.59375q-0.609375 0.671875 -1.453125 1.046875q-0.828125 0.359375 -1.828125 0.359375q-0.984375 0 -1.828125 -0.359375q-0.84375 -0.375 -1.453125 -1.046875q-0.59375 -0.671875 -0.9375 -1.59375q-0.328125 -0.9375 -0.328125 -2.09375q0 -1.140625 0.328125 -2.078125q0.34375 -0.953125 0.9375 -1.625q0.609375 -0.671875 1.453125 -1.03125q0.84375 -0.359375 1.828125 -0.359375q1.0 0 1.828125 0.359375q0.84375 0.359375 1.453125 1.03125q0.609375 0.671875 0.9375 1.625q0.34375 0.9375 0.34375 2.078125zm-1.8125 0q0 -1.65625 -0.75 -2.609375q-0.734375 -0.953125 -2.0 -0.953125q-1.265625 0 -2.0 0.953125q-0.734375 0.953125 -0.734375 2.609375q0 1.640625 0.734375 2.609375q0.734375 0.953125 2.0 0.953125q1.265625 0 2.0 -0.953125q0.75 -0.96875 0.75 -2.609375zm7.835312 -5.0625q0.21875 0 0.5 0.03125q0.296875 0.03125 0.578125 0.078125q0.28125 0.046875 0.515625 0.09375q0.234375 0.046875 0.34375 0.078125l-0.296875 1.515625q-0.203125 -0.078125 -0.6875 -0.171875q-0.46875 -0.109375 -1.21875 -0.109375q-0.484375 0 -0.96875 0.109375q-0.46875 0.09375 -0.609375 0.125l0 8.15625l-1.734375 0l0 -9.296875q0.609375 -0.21875 1.515625 -0.40625q0.921875 -0.203125 2.0625 -0.203125zm7.123184 4.578125q0.5625 0.421875 1.1875 1.0625q0.625 0.625 1.21875 1.359375q0.609375 0.734375 1.15625 1.5q0.546875 0.75 0.921875 1.40625l-2.046875 0q-0.390625 -0.65625 -0.90625 -1.328125q-0.5 -0.6875 -1.0625 -1.3125q-0.5625 -0.625 -1.140625 -1.140625q-0.578125 -0.53125 -1.09375 -0.890625l0 4.671875l-1.734375 0l0 -14.171875l1.734375 -0.3125l0 8.84375q0.4375 -0.4375 0.96875 -0.96875q0.546875 -0.546875 1.0625 -1.109375q0.53125 -0.5625 1.0 -1.078125q0.46875 -0.515625 0.8125 -0.90625l2.03125 0q-0.4375 0.46875 -0.9375 1.03125q-0.5 0.5625 -1.046875 1.125q-0.546875 0.5625 -1.09375 1.140625q-0.546875 0.5625 -1.03125 1.078125zm5.20636 0.5q0 -1.296875 0.375 -2.25q0.375 -0.96875 0.984375 -1.59375q0.609375 -0.640625 1.40625 -0.953125q0.8125 -0.3125 1.65625 -0.3125q1.953125 0 3.0 1.21875q1.046875 1.21875 1.046875 3.71875q0 0.109375 0 0.296875q0 0.171875 -0.015625 0.3125l-6.640625 0q0.109375 1.515625 0.875 2.296875q0.765625 0.78125 2.390625 0.78125q0.90625 0 1.53125 -0.15625q0.625 -0.15625 0.9375 -0.296875l0.25 1.453125q-0.3125 0.15625 -1.109375 0.34375q-0.796875 0.1875 -1.796875 0.1875q-1.265625 0 -2.203125 -0.375q-0.921875 -0.390625 -1.515625 -1.0625q-0.59375 -0.671875 -0.890625 -1.59375q-0.28125 -0.921875 -0.28125 -2.015625zm6.65625 -0.953125q0.015625 -1.171875 -0.59375 -1.921875q-0.59375 -0.765625 -1.65625 -0.765625q-0.609375 0 -1.0625 0.234375q-0.453125 0.234375 -0.78125 0.609375q-0.3125 0.375 -0.484375 0.859375q-0.171875 0.484375 -0.234375 0.984375l4.8125 0zm7.8975983 -4.125q0.21875 0 0.5 0.03125q0.296875 0.03125 0.578125 0.078125q0.28125 0.046875 0.515625 0.09375q0.234375 0.046875 0.34375 0.078125l-0.296875 1.515625q-0.203125 -0.078125 -0.6875 -0.171875q-0.46875 -0.109375 -1.21875 -0.109375q-0.484375 0 -0.96875 0.109375q-0.46875 0.09375 -0.609375 0.125l0 8.15625l-1.734375 0l0 -9.296875q0.609375 -0.21875 1.515625 -0.40625q0.921875 -0.203125 2.0625 -0.203125z" fill-rule="nonzero"/><path fill="#000000" fill-opacity="0.0" d="m48.85827 36.44882l77.543304 0l0 42.01575l-77.543304 0z" fill-rule="evenodd"/><path fill="#000000" d="m65.01452 63.650066q-1.359375 0 -2.484375 -0.4375q-1.109375 -0.453125 -1.921875 -1.3125q-0.796875 -0.859375 -1.234375 -2.109375q-0.4375 -1.265625 -0.4375 -2.890625q0 -1.625 0.5 -2.875q0.5 -1.265625 1.328125 -2.125q0.84375 -0.859375 1.953125 -1.3125q1.125 -0.453125 2.390625 -0.453125q0.8125 0 1.453125 0.125q0.640625 0.109375 1.109375 0.265625q0.484375 0.140625 0.78125 0.296875q0.296875 0.140625 0.40625 0.21875l-0.515625 1.484375q-0.171875 -0.109375 -0.484375 -0.234375q-0.3125 -0.140625 -0.71875 -0.265625q-0.40625 -0.125 -0.890625 -0.203125q-0.46875 -0.09375 -0.953125 -0.09375q-1.015625 0 -1.84375 0.359375q-0.8125 0.34375 -1.390625 1.015625q-0.578125 0.671875 -0.890625 1.640625q-0.3125 0.953125 -0.3125 2.15625q0 1.15625 0.265625 2.109375q0.28125 0.9375 0.8125 1.625q0.546875 0.6875 1.359375 1.0625q0.8125 0.359375 1.890625 0.359375q1.25 0 2.0625 -0.25q0.828125 -0.265625 1.25 -0.46875l0.453125 1.484375q-0.125 0.09375 -0.46875 0.234375q-0.328125 0.140625 -0.828125 0.28125q-0.5 0.125 -1.171875 0.21875q-0.671875 0.09375 -1.46875 0.09375zm8.816879 -0.09375q-1.609375 -0.03125 -2.28125 -0.6875q-0.671875 -0.65625 -0.671875 -2.03125l0 -11.640625l1.734375 -0.3125l0 11.671875q0 0.421875 0.078125 0.703125q0.078125 0.28125 0.234375 0.453125q0.171875 0.15625 0.453125 0.25q0.28125 0.078125 0.6875 0.140625l-0.234375 1.453125zm3.92128 -0.1875l-1.734375 0l0 -9.703125l1.734375 0l0 9.703125zm-0.890625 -11.453125q-0.453125 0 -0.78125 -0.3125q-0.328125 -0.3125 -0.328125 -0.828125q0 -0.515625 0.328125 -0.828125q0.328125 -0.3125 0.78125 -0.3125q0.46875 0 0.796875 0.3125q0.328125 0.3125 0.328125 0.828125q0 0.515625 -0.328125 0.828125q-0.328125 0.3125 -0.796875 0.3125zm3.3294067 6.625q0 -1.296875 0.375 -2.25q0.375 -0.96875 0.984375 -1.59375q0.609375 -0.640625 1.40625 -0.953125q0.8125 -0.3125 1.65625 -0.3125q1.953125 0 3.0 1.21875q1.046875 1.21875 1.046875 3.71875q0 0.109375 0 0.296875q0 0.171875 -0.015625 0.3125l-6.640625 0q0.109375 1.515625 0.875 2.296875q0.765625 0.78125 2.390625 0.78125q0.90625 0 1.53125 -0.15625q0.625 -0.15625 0.9375 -0.296875l0.25 1.453125q-0.3125 0.15625 -1.109375 0.34375q-0.796875 0.1875 -1.796875 0.1875q-1.265625 0 -2.203125 -0.375q-0.921875 -0.390625 -1.515625 -1.0625q-0.59375 -0.671875 -0.890625 -1.59375q-0.28125 -0.921875 -0.28125 -2.015625zm6.65625 -0.953125q0.015625 -1.171875 -0.59375 -1.921875q-0.59375 -0.765625 -1.65625 -0.765625q-0.609375 0 -1.0625 0.234375q-0.453125 0.234375 -0.78125 0.609375q-0.3125 0.375 -0.484375 0.859375q-0.171875 0.484375 -0.234375 0.984375l4.8125 0zm4.3194733 -3.640625q0.59375 -0.15625 1.578125 -0.3125q0.984375 -0.171875 2.28125 -0.171875q1.15625 0 1.921875 0.328125q0.765625 0.328125 1.21875 0.921875q0.453125 0.578125 0.640625 1.40625q0.1875 0.8125 0.1875 1.796875l0 5.453125l-1.734375 0l0 -5.078125q0 -0.890625 -0.125 -1.515625q-0.125 -0.640625 -0.40625 -1.03125q-0.265625 -0.390625 -0.734375 -0.5625q-0.46875 -0.1875 -1.15625 -0.1875q-0.28125 0 -0.578125 0.015625q-0.296875 0.015625 -0.578125 0.046875q-0.265625 0.03125 -0.484375 0.078125q-0.203125 0.03125 -0.296875 0.046875l0 8.1875l-1.734375 0l0 -9.421875zm12.318069 -0.28125l3.6875 0l0 1.453125l-3.6875 0l0 4.484375q0 0.71875 0.109375 1.203125q0.125 0.46875 0.34375 0.75q0.21875 0.265625 0.546875 0.375q0.34375 0.109375 0.796875 0.109375q0.78125 0 1.25 -0.171875q0.484375 -0.171875 0.671875 -0.25l0.328125 1.4375q-0.25 0.125 -0.90625 0.3125q-0.65625 0.203125 -1.5 0.203125q-0.984375 0 -1.625 -0.25q-0.640625 -0.25 -1.03125 -0.75q-0.390625 -0.515625 -0.5625 -1.25q-0.15625 -0.734375 -0.15625 -1.703125l0 -8.65625l1.734375 -0.296875l0 3.0z" fill-rule="nonzero"/><path fill="#000000" fill-opacity="0.0" d="m568.12335 36.44882l77.543335 0l0 64.62993l-77.543335 0z" fill-rule="evenodd"/><path fill="#000000" d="m587.37335 63.368816q-0.328125 -0.84375 -0.609375 -1.65625q-0.28125 -0.8125 -0.578125 -1.640625l-5.859375 0l-1.171875 3.296875l-1.875 0q0.734375 -2.046875 1.390625 -3.796875q0.65625 -1.75 1.28125 -3.3125q0.625 -1.5625 1.234375 -2.984375q0.625 -1.4375 1.296875 -2.828125l1.65625 0q0.671875 1.390625 1.28125 2.828125q0.625 1.421875 1.25 2.984375q0.625 1.5625 1.265625 3.3125q0.65625 1.75 1.40625 3.796875l-1.96875 0zm-1.703125 -4.796875q-0.59375 -1.625 -1.1875 -3.140625q-0.59375 -1.515625 -1.21875 -2.921875q-0.65625 1.40625 -1.25 2.921875q-0.578125 1.515625 -1.15625 3.140625l4.8125 0zm12.760986 4.515625q-0.59375 0.15625 -1.578125 0.3125q-0.984375 0.171875 -2.265625 0.171875q-1.125 0 -1.890625 -0.328125q-0.765625 -0.328125 -1.234375 -0.921875q-0.453125 -0.59375 -0.671875 -1.40625q-0.203125 -0.8125 -0.203125 -1.796875l0 -5.453125l1.734375 0l0 5.078125q0 1.765625 0.5625 2.53125q0.5625 0.765625 1.890625 0.765625q0.28125 0 0.578125 -0.015625q0.296875 -0.015625 0.546875 -0.046875q0.265625 -0.03125 0.484375 -0.046875q0.21875 -0.03125 0.3125 -0.078125l0 -8.1875l1.734375 0l0 9.421875zm4.599304 -9.421875l3.6875 0l0 1.453125l-3.6875 0l0 4.484375q0 0.71875 0.109375 1.203125q0.125 0.46875 0.34375 0.75q0.21875 0.265625 0.546875 0.375q0.34375 0.109375 0.796875 0.109375q0.78125 0 1.25 -0.171875q0.484375 -0.171875 0.671875 -0.25l0.328125 1.4375q-0.25 0.125 -0.90625 0.3125q-0.65625 0.203125 -1.5 0.203125q-0.984375 0 -1.625 -0.25q-0.640625 -0.25 -1.03125 -0.75q-0.390625 -0.515625 -0.5625 -1.25q-0.15625 -0.734375 -0.15625 -1.703125l0 -8.65625l1.734375 -0.296875l0 3.0zm5.890442 9.703125l0 -14.171875l1.734375 -0.3125l0 4.96875q0.484375 -0.1875 1.03125 -0.28125q0.546875 -0.109375 1.09375 -0.109375q1.15625 0 1.921875 0.328125q0.765625 0.328125 1.21875 0.921875q0.453125 0.578125 0.640625 1.40625q0.1875 0.8125 0.1875 1.796875l0 5.453125l-1.734375 0l0 -5.078125q0 -0.890625 -0.125 -1.515625q-0.125 -0.640625 -0.40625 -1.03125q-0.265625 -0.390625 -0.734375 -0.5625q-0.46875 -0.1875 -1.15625 -0.1875q-0.28125 0 -0.578125 0.046875q-0.296875 0.03125 -0.578125 0.078125q-0.265625 0.046875 -0.484375 0.109375q-0.203125 0.046875 -0.296875 0.078125l0 8.0625l-1.734375 0z" fill-rule="nonzero"/><path fill="#000000" d="m581.7327 84.487564q2.828125 0 2.828125 -1.953125q0 -0.59375 -0.25 -1.015625q-0.25 -0.421875 -0.6875 -0.71875q-0.421875 -0.3125 -0.96875 -0.53125q-0.546875 -0.234375 -1.171875 -0.453125q-0.703125 -0.234375 -1.34375 -0.546875q-0.625 -0.3125 -1.09375 -0.734375q-0.46875 -0.421875 -0.734375 -1.0q-0.265625 -0.578125 -0.265625 -1.390625q0 -1.703125 1.15625 -2.65625q1.15625 -0.953125 3.1875 -0.953125q1.171875 0 2.125 0.265625q0.96875 0.25 1.421875 0.546875l-0.578125 1.46875q-0.40625 -0.234375 -1.1875 -0.46875q-0.765625 -0.234375 -1.78125 -0.234375q-0.53125 0 -0.984375 0.109375q-0.4375 0.109375 -0.78125 0.34375q-0.328125 0.21875 -0.53125 0.5625q-0.1875 0.34375 -0.1875 0.8125q0 0.515625 0.203125 0.875q0.203125 0.359375 0.578125 0.625q0.375 0.265625 0.859375 0.5q0.5 0.21875 1.09375 0.4375q0.84375 0.34375 1.546875 0.6875q0.703125 0.328125 1.203125 0.796875q0.515625 0.453125 0.796875 1.109375q0.28125 0.640625 0.28125 1.546875q0 1.703125 -1.25 2.625q-1.234375 0.90625 -3.484375 0.90625q-0.765625 0 -1.40625 -0.109375q-0.640625 -0.09375 -1.15625 -0.234375q-0.5 -0.140625 -0.859375 -0.296875q-0.359375 -0.15625 -0.578125 -0.28125l0.546875 -1.484375q0.421875 0.234375 1.296875 0.546875q0.890625 0.296875 2.15625 0.296875zm6.26886 -3.546875q0 -1.296875 0.375 -2.25q0.375 -0.96875 0.984375 -1.59375q0.609375 -0.640625 1.40625 -0.953125q0.8125 -0.3125 1.65625 -0.3125q1.953125 0 3.0 1.21875q1.046875 1.21875 1.046875 3.71875q0 0.109375 0 0.296875q0 0.171875 -0.015625 0.3125l-6.640625 0q0.109375 1.515625 0.875 2.296875q0.765625 0.78125 2.390625 0.78125q0.90625 0 1.53125 -0.15625q0.625 -0.15625 0.9375 -0.296875l0.25 1.453125q-0.3125 0.15625 -1.109375 0.34375q-0.796875 0.1875 -1.796875 0.1875q-1.265625 0 -2.203125 -0.375q-0.921875 -0.390625 -1.515625 -1.0625q-0.59375 -0.671875 -0.890625 -1.59375q-0.28125 -0.921875 -0.28125 -2.015625zm6.65625 -0.953125q0.015625 -1.171875 -0.59375 -1.921875q-0.59375 -0.765625 -1.65625 -0.765625q-0.609375 0 -1.0625 0.234375q-0.453125 0.234375 -0.78125 0.609375q-0.3125 0.375 -0.484375 0.859375q-0.171875 0.484375 -0.234375 0.984375l4.8125 0zm7.897644 -4.125q0.21875 0 0.5 0.03125q0.296875 0.03125 0.578125 0.078125q0.28125 0.046875 0.515625 0.09375q0.234375 0.046875 0.34375 0.078125l-0.296875 1.515625q-0.203125 -0.078125 -0.6875 -0.171875q-0.46875 -0.109375 -1.21875 -0.109375q-0.484375 0 -0.96875 0.109375q-0.46875 0.09375 -0.609375 0.125l0 8.15625l-1.734375 0l0 -9.296875q0.609375 -0.21875 1.515625 -0.40625q0.921875 -0.203125 2.0625 -0.203125zm11.577637 0.203125q-0.71875 2.71875 -1.703125 5.21875q-0.984375 2.5 -1.890625 4.484375l-1.5625 0q-0.921875 -1.984375 -1.90625 -4.484375q-0.96875 -2.5 -1.703125 -5.21875l1.875 0q0.21875 0.921875 0.515625 1.953125q0.3125 1.03125 0.65625 2.046875q0.34375 1.015625 0.703125 1.96875q0.359375 0.953125 0.671875 1.703125q0.3125 -0.75 0.671875 -1.703125q0.359375 -0.953125 0.703125 -1.96875q0.34375 -1.015625 0.640625 -2.046875q0.3125 -1.03125 0.546875 -1.953125l1.78125 0zm0.994751 4.875q0 -1.296875 0.375 -2.25q0.375 -0.96875 0.984375 -1.59375q0.609375 -0.640625 1.40625 -0.953125q0.8125 -0.3125 1.65625 -0.3125q1.953125 0 3.0 1.21875q1.046875 1.21875 1.046875 3.71875q0 0.109375 0 0.296875q0 0.171875 -0.015625 0.3125l-6.640625 0q0.109375 1.515625 0.875 2.296875q0.765625 0.78125 2.390625 0.78125q0.90625 0 1.53125 -0.15625q0.625 -0.15625 0.9375 -0.296875l0.25 1.453125q-0.3125 0.15625 -1.109375 0.34375q-0.796875 0.1875 -1.796875 0.1875q-1.265625 0 -2.203125 -0.375q-0.921875 -0.390625 -1.515625 -1.0625q-0.59375 -0.671875 -0.890625 -1.59375q-0.28125 -0.921875 -0.28125 -2.015625zm6.65625 -0.953125q0.015625 -1.171875 -0.59375 -1.921875q-0.59375 -0.765625 -1.65625 -0.765625q-0.609375 0 -1.0625 0.234375q-0.453125 0.234375 -0.78125 0.609375q-0.3125 0.375 -0.484375 0.859375q-0.171875 0.484375 -0.234375 0.984375l4.8125 0zm7.897583 -4.125q0.21875 0 0.5 0.03125q0.296875 0.03125 0.578125 0.078125q0.28125 0.046875 0.515625 0.09375q0.234375 0.046875 0.34375 0.078125l-0.296875 1.515625q-0.203125 -0.078125 -0.6875 -0.171875q-0.46875 -0.109375 -1.21875 -0.109375q-0.484375 0 -0.96875 0.109375q-0.46875 0.09375 -0.609375 0.125l0 8.15625l-1.734375 0l0 -9.296875q0.609375 -0.21875 1.515625 -0.40625q0.921875 -0.203125 2.0625 -0.203125z" fill-rule="nonzero"/><path fill="#000000" fill-opacity="0.0" d="m286.11023 79.34646l251.27557 0" fill-rule="evenodd"/><path stroke="#000000" stroke-width="1.0" stroke-linejoin="round" stroke-linecap="butt" d="m286.11023 79.34646l251.27557 0" fill-rule="evenodd"/><path fill="#000000" fill-opacity="0.0" d="m309.2756 36.44882l181.00787 0l0 42.01575l-181.00787 0z" fill-rule="evenodd"/><path fill="#000000" d="m319.7756 63.368816l0 -14.171875l1.734375 -0.3125l0 4.96875q0.484375 -0.1875 1.03125 -0.28125q0.546875 -0.109375 1.09375 -0.109375q1.15625 0 1.921875 0.328125q0.765625 0.328125 1.21875 0.921875q0.453125 0.578125 0.640625 1.40625q0.1875 0.8125 0.1875 1.796875l0 5.453125l-1.734375 0l0 -5.078125q0 -0.890625 -0.125 -1.515625q-0.125 -0.640625 -0.40625 -1.03125q-0.265625 -0.390625 -0.734375 -0.5625q-0.46875 -0.1875 -1.15625 -0.1875q-0.28125 0 -0.578125 0.046875q-0.296875 0.03125 -0.578125 0.078125q-0.265625 0.046875 -0.484375 0.109375q-0.203125 0.046875 -0.296875 0.078125l0 8.0625l-1.734375 0zm12.262085 -9.703125l3.6875 0l0 1.453125l-3.6875 0l0 4.484375q0 0.71875 0.109375 1.203125q0.125 0.46875 0.34375 0.75q0.21875 0.265625 0.546875 0.375q0.34375 0.109375 0.796875 0.109375q0.78125 0 1.25 -0.171875q0.484375 -0.171875 0.671875 -0.25l0.328125 1.4375q-0.25 0.125 -0.90625 0.3125q-0.65625 0.203125 -1.5 0.203125q-0.984375 0 -1.625 -0.25q-0.640625 -0.25 -1.03125 -0.75q-0.390625 -0.515625 -0.5625 -1.25q-0.15625 -0.734375 -0.15625 -1.703125l0 -8.65625l1.734375 -0.296875l0 3.0zm7.499817 0l3.6875 0l0 1.453125l-3.6875 0l0 4.484375q0 0.71875 0.109375 1.203125q0.125 0.46875 0.34375 0.75q0.21875 0.265625 0.546875 0.375q0.34375 0.109375 0.796875 0.109375q0.78125 0 1.25 -0.171875q0.484375 -0.171875 0.671875 -0.25l0.328125 1.4375q-0.25 0.125 -0.90625 0.3125q-0.65625 0.203125 -1.5 0.203125q-0.984375 0 -1.625 -0.25q-0.640625 -0.25 -1.03125 -0.75q-0.390625 -0.515625 -0.5625 -1.25q-0.15625 -0.734375 -0.15625 -1.703125l0 -8.65625l1.734375 -0.296875l0 3.0zm12.624817 4.875q0 -1.703125 -0.84375 -2.609375q-0.84375 -0.921875 -2.234375 -0.921875q-0.796875 0 -1.234375 0.0625q-0.4375 0.046875 -0.6875 0.125l0 6.125q0.3125 0.25 0.90625 0.5q0.59375 0.234375 1.3125 0.234375q0.734375 0 1.265625 -0.265625q0.53125 -0.265625 0.859375 -0.734375q0.34375 -0.484375 0.5 -1.125q0.15625 -0.640625 0.15625 -1.390625zm1.796875 0q0 1.09375 -0.296875 2.03125q-0.28125 0.9375 -0.84375 1.609375q-0.546875 0.671875 -1.359375 1.046875q-0.8125 0.359375 -1.859375 0.359375q-0.84375 0 -1.484375 -0.21875q-0.640625 -0.21875 -0.953125 -0.421875l0 3.8750038l-1.734375 0l0 -12.859379q0.609375 -0.140625 1.53125 -0.3125q0.921875 -0.1875 2.140625 -0.1875q1.109375 0 2.0 0.359375q0.90625 0.34375 1.53125 1.0q0.640625 0.65625 0.984375 1.609375q0.34375 0.9375 0.34375 2.109375zm2.035431 -1.640625q0 -1.671875 0.5 -2.9375q0.5 -1.265625 1.34375 -2.109375q0.84375 -0.859375 1.96875 -1.28125q1.140625 -0.4375 2.40625 -0.4375q1.25 0 2.359375 0.4375q1.109375 0.421875 1.9375 1.28125q0.84375 0.84375 1.34375 2.109375q0.5 1.265625 0.5 2.9375q0 1.65625 -0.5 2.921875q-0.5 1.265625 -1.34375 2.125q-0.828125 0.84375 -1.9375 1.28125q-1.109375 0.421875 -2.359375 0.421875q-1.265625 0 -2.40625 -0.421875q-1.125 -0.4375 -1.96875 -1.28125q-0.84375 -0.859375 -1.34375 -2.125q-0.5 -1.265625 -0.5 -2.921875zm1.90625 0q0 1.171875 0.296875 2.140625q0.296875 0.953125 0.84375 1.625q0.5625 0.671875 1.34375 1.03125q0.796875 0.359375 1.78125 0.359375q1.0 0 1.78125 -0.359375q0.78125 -0.359375 1.328125 -1.03125q0.546875 -0.671875 0.84375 -1.625q0.3125 -0.96875 0.3125 -2.140625q0 -1.1875 -0.3125 -2.140625q-0.296875 -0.96875 -0.84375 -1.625q-0.546875 -0.671875 -1.328125 -1.03125q-0.78125 -0.375 -1.78125 -0.375q-0.984375 0 -1.78125 0.375q-0.78125 0.359375 -1.34375 1.03125q-0.546875 0.65625 -0.84375 1.625q-0.296875 0.953125 -0.296875 2.140625zm13.030182 -2.953125q0.59375 -0.15625 1.578125 -0.3125q0.984375 -0.171875 2.28125 -0.171875q1.15625 0 1.921875 0.328125q0.765625 0.328125 1.21875 0.921875q0.453125 0.578125 0.640625 1.40625q0.1875 0.8125 0.1875 1.796875l0 5.453125l-1.734375 0l0 -5.078125q0 -0.890625 -0.125 -1.515625q-0.125 -0.640625 -0.40625 -1.03125q-0.265625 -0.390625 -0.734375 -0.5625q-0.46875 -0.1875 -1.15625 -0.1875q-0.28125 0 -0.578125 0.015625q-0.296875 0.015625 -0.578125 0.046875q-0.265625 0.03125 -0.484375 0.078125q-0.203125 0.03125 -0.296875 0.046875l0 8.1875l-1.734375 0l0 -9.421875zm13.61496 9.609375q-1.609375 -0.03125 -2.28125 -0.6875q-0.671875 -0.65625 -0.671875 -2.03125l0 -11.640625l1.734375 -0.3125l0 11.671875q0 0.421875 0.078125 0.703125q0.078125 0.28125 0.234375 0.453125q0.171875 0.15625 0.453125 0.25q0.28125 0.078125 0.6875 0.140625l-0.234375 1.453125zm1.0462646 1.6250038q0.203125 0.09375 0.53125 0.171875q0.328125 0.09375 0.640625 0.09375q1.03125 0 1.609375 -0.46875q0.578125 -0.453125 1.03125 -1.4843788q-1.171875 -2.234375 -2.1875 -4.734375q-1.015625 -2.515625 -1.6875 -5.09375l1.875 0q0.203125 0.84375 0.484375 1.8125q0.296875 0.96875 0.640625 2.0q0.359375 1.015625 0.765625 2.046875q0.421875 1.03125 0.859375 1.984375q0.71875 -1.96875 1.234375 -3.890625q0.515625 -1.921875 0.984375 -3.953125l1.796875 0q-0.671875 2.75 -1.5 5.28125q-0.8125 2.515625 -1.765625 4.71875q-0.375 0.8437538 -0.78125 1.4375038q-0.390625 0.609375 -0.875 1.0q-0.484375 0.40625 -1.09375 0.578125q-0.609375 0.1875 -1.375 0.1875q-0.203125 0 -0.4375 -0.03125q-0.21875 -0.015625 -0.4375 -0.0625q-0.203125 -0.046875 -0.390625 -0.109375q-0.171875 -0.046875 -0.25 -0.09375l0.328125 -1.390625zm20.378632 -1.5312538q-1.359375 0 -2.484375 -0.4375q-1.109375 -0.453125 -1.921875 -1.3125q-0.796875 -0.859375 -1.234375 -2.109375q-0.4375 -1.265625 -0.4375 -2.890625q0 -1.625 0.5 -2.875q0.5 -1.265625 1.328125 -2.125q0.84375 -0.859375 1.953125 -1.3125q1.125 -0.453125 2.390625 -0.453125q0.8125 0 1.453125 0.125q0.640625 0.109375 1.109375 0.265625q0.484375 0.140625 0.78125 0.296875q0.296875 0.140625 0.40625 0.21875l-0.515625 1.484375q-0.171875 -0.109375 -0.484375 -0.234375q-0.3125 -0.140625 -0.71875 -0.265625q-0.40625 -0.125 -0.890625 -0.203125q-0.46875 -0.09375 -0.953125 -0.09375q-1.015625 0 -1.84375 0.359375q-0.8125 0.34375 -1.390625 1.015625q-0.578125 0.671875 -0.890625 1.640625q-0.3125 0.953125 -0.3125 2.15625q0 1.15625 0.265625 2.109375q0.28125 0.9375 0.8125 1.625q0.546875 0.6875 1.359375 1.0625q0.8125 0.359375 1.890625 0.359375q1.25 0 2.0625 -0.25q0.828125 -0.265625 1.25 -0.46875l0.453125 1.484375q-0.125 0.09375 -0.46875 0.234375q-0.328125 0.140625 -0.828125 0.28125q-0.5 0.125 -1.171875 0.21875q-0.671875 0.09375 -1.46875 0.09375zm14.193146 -5.125q0 1.15625 -0.34375 2.09375q-0.328125 0.921875 -0.9375 1.59375q-0.609375 0.671875 -1.453125 1.046875q-0.828125 0.359375 -1.828125 0.359375q-0.984375 0 -1.828125 -0.359375q-0.84375 -0.375 -1.453125 -1.046875q-0.59375 -0.671875 -0.9375 -1.59375q-0.328125 -0.9375 -0.328125 -2.09375q0 -1.140625 0.328125 -2.078125q0.34375 -0.953125 0.9375 -1.625q0.609375 -0.671875 1.453125 -1.03125q0.84375 -0.359375 1.828125 -0.359375q1.0 0 1.828125 0.359375q0.84375 0.359375 1.453125 1.03125q0.609375 0.671875 0.9375 1.625q0.34375 0.9375 0.34375 2.078125zm-1.8125 0q0 -1.65625 -0.75 -2.609375q-0.734375 -0.953125 -2.0 -0.953125q-1.265625 0 -2.0 0.953125q-0.734375 0.953125 -0.734375 2.609375q0 1.640625 0.734375 2.609375q0.734375 0.953125 2.0 0.953125q1.265625 0 2.0 -0.953125q0.75 -0.96875 0.75 -2.609375zm12.819672 0q0 1.15625 -0.34375 2.09375q-0.328125 0.921875 -0.9375 1.59375q-0.609375 0.671875 -1.453125 1.046875q-0.828125 0.359375 -1.828125 0.359375q-0.984375 0 -1.828125 -0.359375q-0.84375 -0.375 -1.453125 -1.046875q-0.59375 -0.671875 -0.9375 -1.59375q-0.328125 -0.9375 -0.328125 -2.09375q0 -1.140625 0.328125 -2.078125q0.34375 -0.953125 0.9375 -1.625q0.609375 -0.671875 1.453125 -1.03125q0.84375 -0.359375 1.828125 -0.359375q1.0 0 1.828125 0.359375q0.84375 0.359375 1.453125 1.03125q0.609375 0.671875 0.9375 1.625q0.34375 0.9375 0.34375 2.078125zm-1.8125 0q0 -1.65625 -0.75 -2.609375q-0.734375 -0.953125 -2.0 -0.953125q-1.265625 0 -2.0 0.953125q-0.734375 0.953125 -0.734375 2.609375q0 1.640625 0.734375 2.609375q0.734375 0.953125 2.0 0.953125q1.265625 0 2.0 -0.953125q0.75 -0.96875 0.75 -2.609375zm7.757202 -0.484375q0.5625 0.421875 1.1875 1.0625q0.625 0.625 1.21875 1.359375q0.609375 0.734375 1.15625 1.5q0.546875 0.75 0.921875 1.40625l-2.046875 0q-0.390625 -0.65625 -0.90625 -1.328125q-0.5 -0.6875 -1.0625 -1.3125q-0.5625 -0.625 -1.140625 -1.140625q-0.578125 -0.53125 -1.09375 -0.890625l0 4.671875l-1.734375 0l0 -14.171875l1.734375 -0.3125l0 8.84375q0.4375 -0.4375 0.96875 -0.96875q0.546875 -0.546875 1.0625 -1.109375q0.53125 -0.5625 1.0 -1.078125q0.46875 -0.515625 0.8125 -0.90625l2.03125 0q-0.4375 0.46875 -0.9375 1.03125q-0.5 0.5625 -1.046875 1.125q-0.546875 0.5625 -1.09375 1.140625q-0.546875 0.5625 -1.03125 1.078125zm7.972931 5.328125l-1.734375 0l0 -9.703125l1.734375 0l0 9.703125zm-0.890625 -11.453125q-0.453125 0 -0.78125 -0.3125q-0.328125 -0.3125 -0.328125 -0.828125q0 -0.515625 0.328125 -0.828125q0.328125 -0.3125 0.78125 -0.3125q0.46875 0 0.796875 0.3125q0.328125 0.3125 0.328125 0.828125q0 0.515625 -0.328125 0.828125q-0.328125 0.3125 -0.796875 0.3125zm3.3294067 6.625q0 -1.296875 0.375 -2.25q0.375 -0.96875 0.984375 -1.59375q0.609375 -0.640625 1.40625 -0.953125q0.8125 -0.3125 1.65625 -0.3125q1.953125 0 3.0 1.21875q1.046875 1.21875 1.046875 3.71875q0 0.109375 0 0.296875q0 0.171875 -0.015625 0.3125l-6.640625 0q0.109375 1.515625 0.875 2.296875q0.765625 0.78125 2.390625 0.78125q0.90625 0 1.53125 -0.15625q0.625 -0.15625 0.9375 -0.296875l0.25 1.453125q-0.3125 0.15625 -1.109375 0.34375q-0.796875 0.1875 -1.796875 0.1875q-1.265625 0 -2.203125 -0.375q-0.921875 -0.390625 -1.515625 -1.0625q-0.59375 -0.671875 -0.890625 -1.59375q-0.28125 -0.921875 -0.28125 -2.015625zm6.65625 -0.953125q0.015625 -1.171875 -0.59375 -1.921875q-0.59375 -0.765625 -1.65625 -0.765625q-0.609375 0 -1.0625 0.234375q-0.453125 0.234375 -0.78125 0.609375q-0.3125 0.375 -0.484375 0.859375q-0.171875 0.484375 -0.234375 0.984375l4.8125 0z" fill-rule="nonzero"/><path fill="#000000" fill-opacity="0.0" d="m539.3648 316.28928l0 0c0 -15.62085 12.663208 -28.284027 28.284058 -28.284027l113.13275 0l0 0c7.501343 0 14.695496 2.9799194 19.999817 8.28421c5.3042603 5.3042603 8.28418 12.498444 8.28418 19.999817l0 161.03824c0 15.62085 -12.663208 28.284027 -28.283997 28.284027l-113.13275 0c-15.62085 0 -28.284058 -12.6631775 -28.284058 -28.284027z" fill-rule="evenodd"/><path stroke="#000000" stroke-width="1.0" stroke-linejoin="round" stroke-linecap="butt" d="m539.3648 316.28928l0 0c0 -15.62085 12.663208 -28.284027 28.284058 -28.284027l113.13275 0l0 0c7.501343 0 14.695496 2.9799194 19.999817 8.28421c5.3042603 5.3042603 8.28418 12.498444 8.28418 19.999817l0 161.03824c0 15.62085 -12.663208 28.284027 -28.283997 28.284027l-113.13275 0c-15.62085 0 -28.284058 -12.6631775 -28.284058 -28.284027z" fill-rule="evenodd"/><path fill="#000000" fill-opacity="0.0" d="m552.7113 296.43045l116.22046 0l0 64.62991l-116.22046 0z" fill-rule="evenodd"/><path fill="#000000" d="m569.6332 317.94418q0.3125 0.375 0.765625 0.984375q0.453125 0.59375 0.9375 1.34375q0.484375 0.734375 0.953125 1.53125q0.484375 0.796875 0.828125 1.546875l-1.984375 0q-0.375 -0.703125 -0.8125 -1.4375q-0.4375 -0.734375 -0.890625 -1.390625q-0.4375 -0.65625 -0.875 -1.234375q-0.4375 -0.578125 -0.796875 -1.015625q-0.25 0.015625 -0.5 0.015625q-0.25 0 -0.515625 0l-1.609375 0l0 5.0625l-1.8125 0l0 -12.75q0.765625 -0.171875 1.703125 -0.234375q0.9375 -0.078125 1.71875 -0.078125q2.734375 0 4.15625 1.03125q1.421875 1.03125 1.421875 3.0625q0 1.28125 -0.6875 2.203125q-0.671875 0.90625 -2.0 1.359375zm-2.734375 -6.0625q-1.15625 0 -1.765625 0.046875l0 4.875l1.28125 0q0.9375 0 1.671875 -0.09375q0.75 -0.09375 1.265625 -0.34375q0.515625 -0.265625 0.796875 -0.734375q0.28125 -0.484375 0.28125 -1.28125q0 -0.71875 -0.28125 -1.203125q-0.28125 -0.484375 -0.765625 -0.765625q-0.46875 -0.28125 -1.125 -0.390625q-0.640625 -0.109375 -1.359375 -0.109375zm7.500366 6.640625q0 -1.296875 0.375 -2.25q0.375 -0.96875 0.984375 -1.59375q0.609375 -0.640625 1.40625 -0.953125q0.8125 -0.3125 1.65625 -0.3125q1.953125 0 3.0 1.21875q1.046875 1.21875 1.046875 3.71875q0 0.109375 0 0.296875q0 0.171875 -0.015625 0.3125l-6.640625 0q0.109375 1.515625 0.875 2.296875q0.765625 0.78125 2.390625 0.78125q0.90625 0 1.53125 -0.15625q0.625 -0.15625 0.9375 -0.296875l0.25 1.453125q-0.3125 0.15625 -1.109375 0.34375q-0.796875 0.1875 -1.796875 0.1875q-1.265625 0 -2.203125 -0.375q-0.921875 -0.390625 -1.515625 -1.0625q-0.59375 -0.671875 -0.890625 -1.59375q-0.28125 -0.921875 -0.28125 -2.015625zm6.65625 -0.953125q0.015625 -1.171875 -0.59375 -1.921875q-0.59375 -0.765625 -1.65625 -0.765625q-0.609375 0 -1.0625 0.234375q-0.453125 0.234375 -0.78125 0.609375q-0.3125 0.375 -0.484375 0.859375q-0.171875 0.484375 -0.234375 0.984375l4.8125 0zm6.569519 4.53125q1.0625 0 1.578125 -0.28125q0.515625 -0.28125 0.515625 -0.890625q0 -0.640625 -0.515625 -1.015625q-0.5 -0.375 -1.65625 -0.828125q-0.5625 -0.234375 -1.078125 -0.46875q-0.5 -0.234375 -0.875 -0.546875q-0.375 -0.3125 -0.609375 -0.765625q-0.21875 -0.453125 -0.21875 -1.09375q0 -1.296875 0.953125 -2.046875q0.953125 -0.75 2.59375 -0.75q0.40625 0 0.8125 0.046875q0.421875 0.046875 0.765625 0.109375q0.359375 0.0625 0.625 0.140625q0.28125 0.0625 0.4375 0.125l-0.328125 1.5q-0.28125 -0.15625 -0.875 -0.3125q-0.59375 -0.15625 -1.4375 -0.15625q-0.71875 0 -1.265625 0.296875q-0.546875 0.28125 -0.546875 0.890625q0 0.3125 0.125 0.5625q0.125 0.234375 0.375 0.4375q0.25 0.203125 0.625 0.375q0.375 0.15625 0.890625 0.34375q0.6875 0.265625 1.234375 0.515625q0.546875 0.25 0.921875 0.59375q0.390625 0.328125 0.59375 0.8125q0.203125 0.46875 0.203125 1.15625q0 1.34375 -1.0 2.03125q-1.0 0.6875 -2.84375 0.6875q-1.28125 0 -2.015625 -0.21875q-0.734375 -0.203125 -0.984375 -0.3125l0.3125 -1.5q0.296875 0.109375 0.953125 0.34375q0.65625 0.21875 1.734375 0.21875zm14.633179 -3.59375q0 1.15625 -0.34375 2.09375q-0.328125 0.921875 -0.9375 1.59375q-0.609375 0.671875 -1.453125 1.046875q-0.828125 0.359375 -1.828125 0.359375q-0.984375 0 -1.828125 -0.359375q-0.84375 -0.375 -1.453125 -1.046875q-0.59375 -0.671875 -0.9375 -1.59375q-0.328125 -0.9375 -0.328125 -2.09375q0 -1.140625 0.328125 -2.078125q0.34375 -0.953125 0.9375 -1.625q0.609375 -0.671875 1.453125 -1.03125q0.84375 -0.359375 1.828125 -0.359375q1.0 0 1.828125 0.359375q0.84375 0.359375 1.453125 1.03125q0.609375 0.671875 0.9375 1.625q0.34375 0.9375 0.34375 2.078125zm-1.8125 0q0 -1.65625 -0.75 -2.609375q-0.734375 -0.953125 -2.0 -0.953125q-1.265625 0 -2.0 0.953125q-0.734375 0.953125 -0.734375 2.609375q0 1.640625 0.734375 2.609375q0.734375 0.953125 2.0 0.953125q1.265625 0 2.0 -0.953125q0.75 -0.96875 0.75 -2.609375zm11.975952 4.5625q-0.59375 0.15625 -1.578125 0.3125q-0.984375 0.171875 -2.265625 0.171875q-1.125 0 -1.890625 -0.328125q-0.765625 -0.328125 -1.234375 -0.921875q-0.453125 -0.59375 -0.671875 -1.40625q-0.203125 -0.8125 -0.203125 -1.796875l0 -5.453125l1.734375 0l0 5.078125q0 1.765625 0.5625 2.53125q0.5625 0.765625 1.890625 0.765625q0.28125 0 0.578125 -0.015625q0.296875 -0.015625 0.546875 -0.046875q0.265625 -0.03125 0.484375 -0.046875q0.21875 -0.03125 0.3125 -0.078125l0 -8.1875l1.734375 0l0 9.421875zm6.568054 -9.625q0.21875 0 0.5 0.03125q0.296875 0.03125 0.578125 0.078125q0.28125 0.046875 0.515625 0.09375q0.234375 0.046875 0.34375 0.078125l-0.296875 1.515625q-0.203125 -0.078125 -0.6875 -0.171875q-0.46875 -0.109375 -1.21875 -0.109375q-0.484375 0 -0.96875 0.109375q-0.46875 0.09375 -0.609375 0.125l0 8.15625l-1.734375 0l0 -9.296875q0.609375 -0.21875 1.515625 -0.40625q0.921875 -0.203125 2.0625 -0.203125zm7.826294 10.125q-1.171875 0 -2.0625 -0.359375q-0.875 -0.375 -1.484375 -1.046875q-0.609375 -0.671875 -0.90625 -1.59375q-0.296875 -0.9375 -0.296875 -2.046875q0 -1.125 0.328125 -2.046875q0.328125 -0.9375 0.921875 -1.609375q0.59375 -0.6875 1.453125 -1.0625q0.875 -0.390625 1.9375 -0.390625q0.65625 0 1.3125 0.109375q0.65625 0.109375 1.25 0.34375l-0.390625 1.484375q-0.390625 -0.1875 -0.90625 -0.296875q-0.515625 -0.109375 -1.09375 -0.109375q-1.453125 0 -2.234375 0.921875q-0.765625 0.90625 -0.765625 2.65625q0 0.78125 0.171875 1.4375q0.171875 0.640625 0.546875 1.109375q0.390625 0.46875 0.984375 0.71875q0.609375 0.25 1.46875 0.25q0.6875 0 1.25 -0.125q0.5625 -0.125 0.875 -0.28125l0.234375 1.453125q-0.140625 0.09375 -0.421875 0.1875q-0.28125 0.078125 -0.640625 0.140625q-0.34375 0.0625 -0.75 0.109375q-0.40625 0.046875 -0.78125 0.046875zm3.925171 -5.046875q0 -1.296875 0.375 -2.25q0.375 -0.96875 0.984375 -1.59375q0.609375 -0.640625 1.40625 -0.953125q0.8125 -0.3125 1.65625 -0.3125q1.953125 0 3.0 1.21875q1.046875 1.21875 1.046875 3.71875q0 0.109375 0 0.296875q0 0.171875 -0.015625 0.3125l-6.640625 0q0.109375 1.515625 0.875 2.296875q0.765625 0.78125 2.390625 0.78125q0.90625 0 1.53125 -0.15625q0.625 -0.15625 0.9375 -0.296875l0.25 1.453125q-0.3125 0.15625 -1.109375 0.34375q-0.796875 0.1875 -1.796875 0.1875q-1.265625 0 -2.203125 -0.375q-0.921875 -0.390625 -1.515625 -1.0625q-0.59375 -0.671875 -0.890625 -1.59375q-0.28125 -0.921875 -0.28125 -2.015625zm6.65625 -0.953125q0.015625 -1.171875 -0.59375 -1.921875q-0.59375 -0.765625 -1.65625 -0.765625q-0.609375 0 -1.0625 0.234375q-0.453125 0.234375 -0.78125 0.609375q-0.3125 0.375 -0.484375 0.859375q-0.171875 0.484375 -0.234375 0.984375l4.8125 0z" fill-rule="nonzero"/><path fill="#000000" d="m566.3207 344.46918q2.828125 0 2.828125 -1.953125q0 -0.59375 -0.25 -1.015625q-0.25 -0.421875 -0.6875 -0.71875q-0.421875 -0.3125 -0.96875 -0.53125q-0.546875 -0.234375 -1.171875 -0.453125q-0.703125 -0.234375 -1.34375 -0.546875q-0.625 -0.3125 -1.09375 -0.734375q-0.46875 -0.421875 -0.734375 -1.0q-0.265625 -0.578125 -0.265625 -1.390625q0 -1.703125 1.15625 -2.65625q1.15625 -0.953125 3.1875 -0.953125q1.171875 0 2.125 0.265625q0.96875 0.25 1.421875 0.546875l-0.578125 1.46875q-0.40625 -0.234375 -1.1875 -0.46875q-0.765625 -0.234375 -1.78125 -0.234375q-0.53125 0 -0.984375 0.109375q-0.4375 0.109375 -0.78125 0.34375q-0.328125 0.21875 -0.53125 0.5625q-0.1875 0.34375 -0.1875 0.8125q0 0.515625 0.203125 0.875q0.203125 0.359375 0.578125 0.625q0.375 0.265625 0.859375 0.5q0.5 0.21875 1.09375 0.4375q0.84375 0.34375 1.546875 0.6875q0.703125 0.328125 1.203125 0.796875q0.515625 0.453125 0.796875 1.109375q0.28125 0.640625 0.28125 1.546875q0 1.703125 -1.25 2.625q-1.234375 0.90625 -3.484375 0.90625q-0.765625 0 -1.40625 -0.109375q-0.640625 -0.09375 -1.15625 -0.234375q-0.5 -0.140625 -0.859375 -0.296875q-0.359375 -0.15625 -0.578125 -0.28125l0.546875 -1.484375q0.421875 0.234375 1.296875 0.546875q0.890625 0.296875 2.15625 0.296875zm6.26886 -3.546875q0 -1.296875 0.375 -2.25q0.375 -0.96875 0.984375 -1.59375q0.609375 -0.640625 1.40625 -0.953125q0.8125 -0.3125 1.65625 -0.3125q1.953125 0 3.0 1.21875q1.046875 1.21875 1.046875 3.71875q0 0.109375 0 0.296875q0 0.171875 -0.015625 0.3125l-6.640625 0q0.109375 1.515625 0.875 2.296875q0.765625 0.78125 2.390625 0.78125q0.90625 0 1.53125 -0.15625q0.625 -0.15625 0.9375 -0.296875l0.25 1.453125q-0.3125 0.15625 -1.109375 0.34375q-0.796875 0.1875 -1.796875 0.1875q-1.265625 0 -2.203125 -0.375q-0.921875 -0.390625 -1.515625 -1.0625q-0.59375 -0.671875 -0.890625 -1.59375q-0.28125 -0.921875 -0.28125 -2.015625zm6.65625 -0.953125q0.015625 -1.171875 -0.59375 -1.921875q-0.59375 -0.765625 -1.65625 -0.765625q-0.609375 0 -1.0625 0.234375q-0.453125 0.234375 -0.78125 0.609375q-0.3125 0.375 -0.484375 0.859375q-0.171875 0.484375 -0.234375 0.984375l4.8125 0zm7.897583 -4.125q0.21875 0 0.5 0.03125q0.296875 0.03125 0.578125 0.078125q0.28125 0.046875 0.515625 0.09375q0.234375 0.046875 0.34375 0.078125l-0.296875 1.515625q-0.203125 -0.078125 -0.6875 -0.171875q-0.46875 -0.109375 -1.21875 -0.109375q-0.484375 0 -0.96875 0.109375q-0.46875 0.09375 -0.609375 0.125l0 8.15625l-1.734375 0l0 -9.296875q0.609375 -0.21875 1.515625 -0.40625q0.921875 -0.203125 2.0625 -0.203125zm11.577698 0.203125q-0.71875 2.71875 -1.703125 5.21875q-0.984375 2.5 -1.890625 4.484375l-1.5625 0q-0.921875 -1.984375 -1.90625 -4.484375q-0.96875 -2.5 -1.703125 -5.21875l1.875 0q0.21875 0.921875 0.515625 1.953125q0.3125 1.03125 0.65625 2.046875q0.34375 1.015625 0.703125 1.96875q0.359375 0.953125 0.671875 1.703125q0.3125 -0.75 0.671875 -1.703125q0.359375 -0.953125 0.703125 -1.96875q0.34375 -1.015625 0.640625 -2.046875q0.3125 -1.03125 0.546875 -1.953125l1.78125 0zm0.99468994 4.875q0 -1.296875 0.375 -2.25q0.375 -0.96875 0.984375 -1.59375q0.609375 -0.640625 1.40625 -0.953125q0.8125 -0.3125 1.65625 -0.3125q1.953125 0 3.0 1.21875q1.046875 1.21875 1.046875 3.71875q0 0.109375 0 0.296875q0 0.171875 -0.015625 0.3125l-6.640625 0q0.109375 1.515625 0.875 2.296875q0.765625 0.78125 2.390625 0.78125q0.90625 0 1.53125 -0.15625q0.625 -0.15625 0.9375 -0.296875l0.25 1.453125q-0.3125 0.15625 -1.109375 0.34375q-0.796875 0.1875 -1.796875 0.1875q-1.265625 0 -2.203125 -0.375q-0.921875 -0.390625 -1.515625 -1.0625q-0.59375 -0.671875 -0.890625 -1.59375q-0.28125 -0.921875 -0.28125 -2.015625zm6.65625 -0.953125q0.015625 -1.171875 -0.59375 -1.921875q-0.59375 -0.765625 -1.65625 -0.765625q-0.609375 0 -1.0625 0.234375q-0.453125 0.234375 -0.78125 0.609375q-0.3125 0.375 -0.484375 0.859375q-0.171875 0.484375 -0.234375 0.984375l4.8125 0zm7.897644 -4.125q0.21875 0 0.5 0.03125q0.296875 0.03125 0.578125 0.078125q0.28125 0.046875 0.515625 0.09375q0.234375 0.046875 0.34375 0.078125l-0.296875 1.515625q-0.203125 -0.078125 -0.6875 -0.171875q-0.46875 -0.109375 -1.21875 -0.109375q-0.484375 0 -0.96875 0.109375q-0.46875 0.09375 -0.609375 0.125l0 8.15625l-1.734375 0l0 -9.296875q0.609375 -0.21875 1.515625 -0.40625q0.921875 -0.203125 2.0625 -0.203125z" fill-rule="nonzero"/><path fill="#000000" fill-opacity="0.0" d="m265.49606 204.9895l274.83463 0" fill-rule="evenodd"/><path stroke="#000000" stroke-width="1.0" stroke-linejoin="round" stroke-linecap="butt" d="m265.49606 204.9895l274.83463 0" fill-rule="evenodd"/><path fill="#000000" fill-opacity="0.0" d="m357.65616 162.97375l64.22049 0l0 42.015747l-64.22049 0z" fill-rule="evenodd"/><path fill="#000000" d="m374.46866 185.7375q0 0.921875 -0.203125 1.734375q-0.1875 0.796875 -0.6875 1.40625q-0.484375 0.609375 -1.3125 0.953125q-0.828125 0.34375 -2.078125 0.34375q-0.640625 0 -1.171875 -0.109375q-0.53125 -0.09375 -0.96875 -0.25q-0.421875 -0.171875 -0.75 -0.34375q-0.3125 -0.171875 -0.484375 -0.34375l0.703125 -1.4375q0.390625 0.28125 1.015625 0.59375q0.625 0.296875 1.5625 0.296875q1.34375 0 1.953125 -0.671875q0.609375 -0.6875 0.609375 -2.34375l0 -8.59375l1.8125 0l0 8.765625zm10.1875 -4.609375q-0.78125 2.5 -1.59375 4.625q-0.796875 2.125 -1.59375 4.140625l-1.8125 0q-0.984375 -2.859375 -1.75 -6.03125q-0.75 -3.171875 -1.40625 -6.890625l1.90625 0q0.265625 1.453125 0.546875 2.90625q0.28125 1.453125 0.578125 2.828125q0.296875 1.359375 0.59375 2.609375q0.296875 1.25 0.609375 2.328125q0.75 -1.96875 1.59375 -4.3125q0.84375 -2.34375 1.5625 -4.84375l1.578125 0q0.71875 2.5 1.578125 4.84375q0.859375 2.34375 1.609375 4.3125q0.296875 -1.046875 0.59375 -2.296875q0.296875 -1.25 0.578125 -2.625q0.296875 -1.375 0.578125 -2.828125q0.28125 -1.46875 0.546875 -2.921875l1.84375 0q-0.671875 3.71875 -1.4375 6.890625q-0.75 3.171875 -1.71875 6.03125l-1.8125 0q-0.8125 -2.015625 -1.609375 -4.140625q-0.78125 -2.125 -1.5625 -4.625zm19.264465 -4.15625l0 1.5625l-4.078125 0l0 11.359375l-1.8125 0l0 -11.359375l-4.0625 0l0 -1.5625l9.953125 0z" fill-rule="nonzero"/><path fill="#000000" fill-opacity="0.0" d="m321.8058 204.9895l181.00787 0l0 42.015747l-181.00787 0z" fill-rule="evenodd"/><path fill="#000000" d="m342.85266 218.98763q-0.703125 2.046875 -1.34375 3.796875q-0.640625 1.734375 -1.265625 3.3125q-0.609375 1.5625 -1.21875 2.984375q-0.609375 1.421875 -1.234375 2.828125l-1.703125 0q-0.640625 -1.40625 -1.25 -2.828125q-0.59375 -1.421875 -1.21875 -2.984375q-0.625 -1.578125 -1.28125 -3.3125q-0.65625 -1.75 -1.34375 -3.796875l2.0 0q1.0 2.9375 1.96875 5.671875q0.96875 2.71875 2.0 5.109375q1.03125 -2.375 2.0 -5.109375q0.96875 -2.734375 1.953125 -5.671875l1.9375 0zm3.4259949 12.921875l-1.734375 0l0 -9.703125l1.734375 0l0 9.703125zm-0.890625 -11.453125q-0.453125 0 -0.78125 -0.3125q-0.328125 -0.3125 -0.328125 -0.828125q0 -0.515625 0.328125 -0.828125q0.328125 -0.3125 0.78125 -0.3125q0.46875 0 0.796875 0.3125q0.328125 0.3125 0.328125 0.828125q0 0.515625 -0.328125 0.828125q-0.328125 0.3125 -0.796875 0.3125zm7.1575317 10.203125q0.609375 0 1.078125 -0.03125q0.484375 -0.03125 0.796875 -0.09375l0 -2.890625q-0.1875 -0.09375 -0.609375 -0.15625q-0.40625 -0.078125 -1.015625 -0.078125q-0.390625 0 -0.828125 0.0625q-0.4375 0.046875 -0.796875 0.234375q-0.359375 0.171875 -0.609375 0.484375q-0.234375 0.296875 -0.234375 0.8125q0 0.921875 0.59375 1.296875q0.59375 0.359375 1.625 0.359375zm-0.15625 -8.6875q1.046875 0 1.765625 0.265625q0.71875 0.265625 1.15625 0.765625q0.4375 0.5 0.625 1.1875q0.1875 0.671875 0.1875 1.484375l0 6.0625q-0.21875 0.046875 -0.625 0.109375q-0.40625 0.0625 -0.90625 0.109375q-0.5 0.0625 -1.09375 0.109375q-0.578125 0.046875 -1.15625 0.046875q-0.828125 0 -1.515625 -0.171875q-0.6875 -0.15625 -1.203125 -0.515625q-0.5 -0.375 -0.78125 -0.96875q-0.28125 -0.59375 -0.28125 -1.4375q0 -0.796875 0.328125 -1.375q0.328125 -0.578125 0.890625 -0.9375q0.5625 -0.359375 1.296875 -0.515625q0.75 -0.171875 1.578125 -0.171875q0.265625 0 0.53125 0.03125q0.28125 0.015625 0.53125 0.0625q0.265625 0.046875 0.4375 0.09375q0.1875 0.03125 0.265625 0.046875l0 -0.484375q0 -0.421875 -0.09375 -0.84375q-0.09375 -0.421875 -0.34375 -0.75q-0.234375 -0.328125 -0.65625 -0.515625q-0.40625 -0.203125 -1.078125 -0.203125q-0.859375 0 -1.515625 0.125q-0.640625 0.125 -0.953125 0.25l-0.203125 -1.4375q0.328125 -0.140625 1.109375 -0.28125q0.796875 -0.140625 1.703125 -0.140625zm14.501312 0.03125q0.21875 0 0.5 0.03125q0.296875 0.03125 0.578125 0.078125q0.28125 0.046875 0.515625 0.09375q0.234375 0.046875 0.34375 0.078125l-0.296875 1.515625q-0.203125 -0.078125 -0.6875 -0.171875q-0.46875 -0.109375 -1.21875 -0.109375q-0.484375 0 -0.96875 0.109375q-0.46875 0.09375 -0.609375 0.125l0 8.15625l-1.734375 0l0 -9.296875q0.609375 -0.21875 1.515625 -0.40625q0.921875 -0.203125 2.0625 -0.203125zm3.076294 5.078125q0 -1.296875 0.375 -2.25q0.375 -0.96875 0.984375 -1.59375q0.609375 -0.640625 1.40625 -0.953125q0.8125 -0.3125 1.65625 -0.3125q1.953125 0 3.0 1.21875q1.046875 1.21875 1.046875 3.71875q0 0.109375 0 0.296875q0 0.171875 -0.015625 0.3125l-6.640625 0q0.109375 1.515625 0.875 2.296875q0.765625 0.78125 2.390625 0.78125q0.90625 0 1.53125 -0.15625q0.625 -0.15625 0.9375 -0.296875l0.25 1.453125q-0.3125 0.15625 -1.109375 0.34375q-0.796875 0.1875 -1.796875 0.1875q-1.265625 0 -2.203125 -0.375q-0.921875 -0.390625 -1.515625 -1.0625q-0.59375 -0.671875 -0.890625 -1.59375q-0.28125 -0.921875 -0.28125 -2.015625zm6.65625 -0.953125q0.015625 -1.171875 -0.59375 -1.921875q-0.59375 -0.765625 -1.65625 -0.765625q-0.609375 0 -1.0625 0.234375q-0.453125 0.234375 -0.78125 0.609375q-0.3125 0.375 -0.484375 0.859375q-0.171875 0.484375 -0.234375 0.984375l4.8125 0zm8.100739 -8.703125q0.765625 0 1.3125 0.125q0.546875 0.109375 0.78125 0.203125l-0.328125 1.484375q-0.21875 -0.109375 -0.640625 -0.203125q-0.40625 -0.109375 -1.0 -0.109375q-1.203125 0 -1.6875 0.671875q-0.484375 0.65625 -0.484375 1.765625l0 0.84375l3.71875 0l0 1.453125l-3.71875 0l0 8.25l-1.734375 0l0 -10.578125q0 -1.859375 0.90625 -2.875q0.921875 -1.03125 2.875 -1.03125zm6.998169 4.578125q0.21875 0 0.5 0.03125q0.296875 0.03125 0.578125 0.078125q0.28125 0.046875 0.515625 0.09375q0.234375 0.046875 0.34375 0.078125l-0.296875 1.515625q-0.203125 -0.078125 -0.6875 -0.171875q-0.46875 -0.109375 -1.21875 -0.109375q-0.484375 0 -0.96875 0.109375q-0.46875 0.09375 -0.609375 0.125l0 8.15625l-1.734375 0l0 -9.296875q0.609375 -0.21875 1.515625 -0.40625q0.921875 -0.203125 2.0625 -0.203125zm3.0763245 5.078125q0 -1.296875 0.375 -2.25q0.375 -0.96875 0.984375 -1.59375q0.609375 -0.640625 1.40625 -0.953125q0.8125 -0.3125 1.65625 -0.3125q1.953125 0 3.0 1.21875q1.046875 1.21875 1.046875 3.71875q0 0.109375 0 0.296875q0 0.171875 -0.015625 0.3125l-6.640625 0q0.109375 1.515625 0.875 2.296875q0.765625 0.78125 2.390625 0.78125q0.90625 0 1.53125 -0.15625q0.625 -0.15625 0.9375 -0.296875l0.25 1.453125q-0.3125 0.15625 -1.109375 0.34375q-0.796875 0.1875 -1.796875 0.1875q-1.265625 0 -2.203125 -0.375q-0.921875 -0.390625 -1.515625 -1.0625q-0.59375 -0.671875 -0.890625 -1.59375q-0.28125 -0.921875 -0.28125 -2.015625zm6.65625 -0.953125q0.015625 -1.171875 -0.59375 -1.921875q-0.59375 -0.765625 -1.65625 -0.765625q-0.609375 0 -1.0625 0.234375q-0.453125 0.234375 -0.78125 0.609375q-0.3125 0.375 -0.484375 0.859375q-0.171875 0.484375 -0.234375 0.984375l4.8125 0zm6.569458 4.53125q1.0625 0 1.578125 -0.28125q0.515625 -0.28125 0.515625 -0.890625q0 -0.640625 -0.515625 -1.015625q-0.5 -0.375 -1.65625 -0.828125q-0.5625 -0.234375 -1.078125 -0.46875q-0.5 -0.234375 -0.875 -0.546875q-0.375 -0.3125 -0.609375 -0.765625q-0.21875 -0.453125 -0.21875 -1.09375q0 -1.296875 0.953125 -2.046875q0.953125 -0.75 2.59375 -0.75q0.40625 0 0.8125 0.046875q0.421875 0.046875 0.765625 0.109375q0.359375 0.0625 0.625 0.140625q0.28125 0.0625 0.4375 0.125l-0.328125 1.5q-0.28125 -0.15625 -0.875 -0.3125q-0.59375 -0.15625 -1.4375 -0.15625q-0.71875 0 -1.265625 0.296875q-0.546875 0.28125 -0.546875 0.890625q0 0.3125 0.125 0.5625q0.125 0.234375 0.375 0.4375q0.25 0.203125 0.625 0.375q0.375 0.15625 0.890625 0.34375q0.6875 0.265625 1.234375 0.515625q0.546875 0.25 0.921875 0.59375q0.390625 0.328125 0.59375 0.8125q0.203125 0.46875 0.203125 1.15625q0 1.34375 -1.0 2.03125q-1.0 0.6875 -2.84375 0.6875q-1.28125 0 -2.015625 -0.21875q-0.734375 -0.203125 -0.984375 -0.3125l0.3125 -1.5q0.296875 0.109375 0.953125 0.34375q0.65625 0.21875 1.734375 0.21875zm6.070709 1.25l0 -14.171875l1.734375 -0.3125l0 4.96875q0.484375 -0.1875 1.03125 -0.28125q0.546875 -0.109375 1.09375 -0.109375q1.15625 0 1.921875 0.328125q0.765625 0.328125 1.21875 0.921875q0.453125 0.578125 0.640625 1.40625q0.1875 0.8125 0.1875 1.796875l0 5.453125l-1.734375 0l0 -5.078125q0 -0.890625 -0.125 -1.515625q-0.125 -0.640625 -0.40625 -1.03125q-0.265625 -0.390625 -0.734375 -0.5625q-0.46875 -0.1875 -1.15625 -0.1875q-0.28125 0 -0.578125 0.046875q-0.296875 0.03125 -0.578125 0.078125q-0.265625 0.046875 -0.484375 0.109375q-0.203125 0.046875 -0.296875 0.078125l0 8.0625l-1.734375 0zm16.571686 -9.703125l3.6875 0l0 1.453125l-3.6875 0l0 4.484375q0 0.71875 0.109375 1.203125q0.125 0.46875 0.34375 0.75q0.21875 0.265625 0.546875 0.375q0.34375 0.109375 0.796875 0.109375q0.78125 0 1.25 -0.171875q0.484375 -0.171875 0.671875 -0.25l0.328125 1.4375q-0.25 0.125 -0.90625 0.3125q-0.65625 0.203125 -1.5 0.203125q-0.984375 0 -1.625 -0.25q-0.640625 -0.25 -1.03125 -0.75q-0.390625 -0.515625 -0.5625 -1.25q-0.15625 -0.734375 -0.15625 -1.703125l0 -8.65625l1.734375 -0.296875l0 3.0zm14.19162 4.859375q0 1.15625 -0.34375 2.09375q-0.328125 0.921875 -0.9375 1.59375q-0.609375 0.671875 -1.453125 1.046875q-0.828125 0.359375 -1.828125 0.359375q-0.984375 0 -1.828125 -0.359375q-0.84375 -0.375 -1.453125 -1.046875q-0.59375 -0.671875 -0.9375 -1.59375q-0.328125 -0.9375 -0.328125 -2.09375q0 -1.140625 0.328125 -2.078125q0.34375 -0.953125 0.9375 -1.625q0.609375 -0.671875 1.453125 -1.03125q0.84375 -0.359375 1.828125 -0.359375q1.0 0 1.828125 0.359375q0.84375 0.359375 1.453125 1.03125q0.609375 0.671875 0.9375 1.625q0.34375 0.9375 0.34375 2.078125zm-1.8125 0q0 -1.65625 -0.75 -2.609375q-0.734375 -0.953125 -2.0 -0.953125q-1.265625 0 -2.0 0.953125q-0.734375 0.953125 -0.734375 2.609375q0 1.640625 0.734375 2.609375q0.734375 0.953125 2.0 0.953125q1.265625 0 2.0 -0.953125q0.75 -0.96875 0.75 -2.609375zm7.7571716 -0.484375q0.5625 0.421875 1.1875 1.0625q0.625 0.625 1.21875 1.359375q0.609375 0.734375 1.15625 1.5q0.546875 0.75 0.921875 1.40625l-2.046875 0q-0.390625 -0.65625 -0.90625 -1.328125q-0.5 -0.6875 -1.0625 -1.3125q-0.5625 -0.625 -1.140625 -1.140625q-0.578125 -0.53125 -1.09375 -0.890625l0 4.671875l-1.734375 0l0 -14.171875l1.734375 -0.3125l0 8.84375q0.4375 -0.4375 0.96875 -0.96875q0.546875 -0.546875 1.0625 -1.109375q0.53125 -0.5625 1.0 -1.078125q0.46875 -0.515625 0.8125 -0.90625l2.03125 0q-0.4375 0.46875 -0.9375 1.03125q-0.5 0.5625 -1.046875 1.125q-0.546875 0.5625 -1.09375 1.140625q-0.546875 0.5625 -1.03125 1.078125zm5.20636 0.5q0 -1.296875 0.375 -2.25q0.375 -0.96875 0.984375 -1.59375q0.609375 -0.640625 1.40625 -0.953125q0.8125 -0.3125 1.65625 -0.3125q1.953125 0 3.0 1.21875q1.046875 1.21875 1.046875 3.71875q0 0.109375 0 0.296875q0 0.171875 -0.015625 0.3125l-6.640625 0q0.109375 1.515625 0.875 2.296875q0.765625 0.78125 2.390625 0.78125q0.90625 0 1.53125 -0.15625q0.625 -0.15625 0.9375 -0.296875l0.25 1.453125q-0.3125 0.15625 -1.109375 0.34375q-0.796875 0.1875 -1.796875 0.1875q-1.265625 0 -2.203125 -0.375q-0.921875 -0.390625 -1.515625 -1.0625q-0.59375 -0.671875 -0.890625 -1.59375q-0.28125 -0.921875 -0.28125 -2.015625zm6.65625 -0.953125q0.015625 -1.171875 -0.59375 -1.921875q-0.59375 -0.765625 -1.65625 -0.765625q-0.609375 0 -1.0625 0.234375q-0.453125 0.234375 -0.78125 0.609375q-0.3125 0.375 -0.484375 0.859375q-0.171875 0.484375 -0.234375 0.984375l4.8125 0zm4.3194885 -3.640625q0.59375 -0.15625 1.578125 -0.3125q0.984375 -0.171875 2.28125 -0.171875q1.15625 0 1.921875 0.328125q0.765625 0.328125 1.21875 0.921875q0.453125 0.578125 0.640625 1.40625q0.1875 0.8125 0.1875 1.796875l0 5.453125l-1.734375 0l0 -5.078125q0 -0.890625 -0.125 -1.515625q-0.125 -0.640625 -0.40625 -1.03125q-0.265625 -0.390625 -0.734375 -0.5625q-0.46875 -0.1875 -1.15625 -0.1875q-0.28125 0 -0.578125 0.015625q-0.296875 0.015625 -0.578125 0.046875q-0.265625 0.03125 -0.484375 0.078125q-0.203125 0.03125 -0.296875 0.046875l0 8.1875l-1.734375 0l0 -9.421875z" fill-rule="nonzero"/><path fill="#000000" fill-opacity="0.0" d="m266.4777 411.12598l271.9055 0.9763794" fill-rule="evenodd"/><path stroke="#000000" stroke-width="1.0" stroke-linejoin="round" stroke-linecap="butt" d="m266.4777 411.12598l271.9055 0.9763794" fill-rule="evenodd"/><path fill="#000000" fill-opacity="0.0" d="m357.65616 364.49344l120.8504 0l0 42.015747l-120.8504 0z" fill-rule="evenodd"/><path fill="#000000" d="m374.57803 386.00717q0.3125 0.375 0.765625 0.984375q0.453125 0.59375 0.9375 1.34375q0.484375 0.734375 0.953125 1.53125q0.484375 0.796875 0.828125 1.546875l-1.984375 0q-0.375 -0.703125 -0.8125 -1.4375q-0.4375 -0.734375 -0.890625 -1.390625q-0.4375 -0.65625 -0.875 -1.234375q-0.4375 -0.578125 -0.796875 -1.015625q-0.25 0.015625 -0.5 0.015625q-0.25 0 -0.515625 0l-1.609375 0l0 5.0625l-1.8125 0l0 -12.75q0.765625 -0.171875 1.703125 -0.234375q0.9375 -0.078125 1.71875 -0.078125q2.734375 0 4.15625 1.03125q1.421875 1.03125 1.421875 3.0625q0 1.28125 -0.6875 2.203125q-0.671875 0.90625 -2.0 1.359375zm-2.734375 -6.0625q-1.15625 0 -1.765625 0.046875l0 4.875l1.28125 0q0.9375 0 1.671875 -0.09375q0.75 -0.09375 1.265625 -0.34375q0.515625 -0.265625 0.796875 -0.734375q0.28125 -0.484375 0.28125 -1.28125q0 -0.71875 -0.28125 -1.203125q-0.28125 -0.484375 -0.765625 -0.765625q-0.46875 -0.28125 -1.125 -0.390625q-0.640625 -0.109375 -1.359375 -0.109375zm7.5004272 6.640625q0 -1.296875 0.375 -2.25q0.375 -0.96875 0.984375 -1.59375q0.609375 -0.640625 1.40625 -0.953125q0.8125 -0.3125 1.65625 -0.3125q1.953125 0 3.0 1.21875q1.046875 1.21875 1.046875 3.71875q0 0.109375 0 0.296875q0 0.171875 -0.015625 0.3125l-6.640625 0q0.109375 1.515625 0.875 2.296875q0.765625 0.78125 2.390625 0.78125q0.90625 0 1.53125 -0.15625q0.625 -0.15625 0.9375 -0.296875l0.25 1.453125q-0.3125 0.15625 -1.109375 0.34375q-0.796875 0.1875 -1.796875 0.1875q-1.265625 0 -2.203125 -0.375q-0.921875 -0.390625 -1.515625 -1.0625q-0.59375 -0.671875 -0.890625 -1.59375q-0.28125 -0.921875 -0.28125 -2.015625zm6.65625 -0.953125q0.015625 -1.171875 -0.59375 -1.921875q-0.59375 -0.765625 -1.65625 -0.765625q-0.609375 0 -1.0625 0.234375q-0.453125 0.234375 -0.78125 0.609375q-0.3125 0.375 -0.484375 0.859375q-0.171875 0.484375 -0.234375 0.984375l4.8125 0zm6.569458 4.53125q1.0625 0 1.578125 -0.28125q0.515625 -0.28125 0.515625 -0.890625q0 -0.640625 -0.515625 -1.015625q-0.5 -0.375 -1.65625 -0.828125q-0.5625 -0.234375 -1.078125 -0.46875q-0.5 -0.234375 -0.875 -0.546875q-0.375 -0.3125 -0.609375 -0.765625q-0.21875 -0.453125 -0.21875 -1.09375q0 -1.296875 0.953125 -2.046875q0.953125 -0.75 2.59375 -0.75q0.40625 0 0.8125 0.046875q0.421875 0.046875 0.765625 0.109375q0.359375 0.0625 0.625 0.140625q0.28125 0.0625 0.4375 0.125l-0.328125 1.5q-0.28125 -0.15625 -0.875 -0.3125q-0.59375 -0.15625 -1.4375 -0.15625q-0.71875 0 -1.265625 0.296875q-0.546875 0.28125 -0.546875 0.890625q0 0.3125 0.125 0.5625q0.125 0.234375 0.375 0.4375q0.25 0.203125 0.625 0.375q0.375 0.15625 0.890625 0.34375q0.6875 0.265625 1.234375 0.515625q0.546875 0.25 0.921875 0.59375q0.390625 0.328125 0.59375 0.8125q0.203125 0.46875 0.203125 1.15625q0 1.34375 -1.0 2.03125q-1.0 0.6875 -2.84375 0.6875q-1.28125 0 -2.015625 -0.21875q-0.734375 -0.203125 -0.984375 -0.3125l0.3125 -1.5q0.296875 0.109375 0.953125 0.34375q0.65625 0.21875 1.734375 0.21875zm14.633209 -3.59375q0 1.15625 -0.34375 2.09375q-0.328125 0.921875 -0.9375 1.59375q-0.609375 0.671875 -1.453125 1.046875q-0.828125 0.359375 -1.828125 0.359375q-0.984375 0 -1.828125 -0.359375q-0.84375 -0.375 -1.453125 -1.046875q-0.59375 -0.671875 -0.9375 -1.59375q-0.328125 -0.9375 -0.328125 -2.09375q0 -1.140625 0.328125 -2.078125q0.34375 -0.953125 0.9375 -1.625q0.609375 -0.671875 1.453125 -1.03125q0.84375 -0.359375 1.828125 -0.359375q1.0 0 1.828125 0.359375q0.84375 0.359375 1.453125 1.03125q0.609375 0.671875 0.9375 1.625q0.34375 0.9375 0.34375 2.078125zm-1.8125 0q0 -1.65625 -0.75 -2.609375q-0.734375 -0.953125 -2.0 -0.953125q-1.265625 0 -2.0 0.953125q-0.734375 0.953125 -0.734375 2.609375q0 1.640625 0.734375 2.609375q0.734375 0.953125 2.0 0.953125q1.265625 0 2.0 -0.953125q0.75 -0.96875 0.75 -2.609375zm11.975922 4.5625q-0.59375 0.15625 -1.578125 0.3125q-0.984375 0.171875 -2.265625 0.171875q-1.125 0 -1.890625 -0.328125q-0.765625 -0.328125 -1.234375 -0.921875q-0.453125 -0.59375 -0.671875 -1.40625q-0.203125 -0.8125 -0.203125 -1.796875l0 -5.453125l1.734375 0l0 5.078125q0 1.765625 0.5625 2.53125q0.5625 0.765625 1.890625 0.765625q0.28125 0 0.578125 -0.015625q0.296875 -0.015625 0.546875 -0.046875q0.265625 -0.03125 0.484375 -0.046875q0.21875 -0.03125 0.3125 -0.078125l0 -8.1875l1.734375 0l0 9.421875zm6.5680847 -9.625q0.21875 0 0.5 0.03125q0.296875 0.03125 0.578125 0.078125q0.28125 0.046875 0.515625 0.09375q0.234375 0.046875 0.34375 0.078125l-0.296875 1.515625q-0.203125 -0.078125 -0.6875 -0.171875q-0.46875 -0.109375 -1.21875 -0.109375q-0.484375 0 -0.96875 0.109375q-0.46875 0.09375 -0.609375 0.125l0 8.15625l-1.734375 0l0 -9.296875q0.609375 -0.21875 1.515625 -0.40625q0.921875 -0.203125 2.0625 -0.203125zm7.826294 10.125q-1.171875 0 -2.0625 -0.359375q-0.875 -0.375 -1.484375 -1.046875q-0.609375 -0.671875 -0.90625 -1.59375q-0.296875 -0.9375 -0.296875 -2.046875q0 -1.125 0.328125 -2.046875q0.328125 -0.9375 0.921875 -1.609375q0.59375 -0.6875 1.453125 -1.0625q0.875 -0.390625 1.9375 -0.390625q0.65625 0 1.3125 0.109375q0.65625 0.109375 1.25 0.34375l-0.390625 1.484375q-0.390625 -0.1875 -0.90625 -0.296875q-0.515625 -0.109375 -1.09375 -0.109375q-1.453125 0 -2.234375 0.921875q-0.765625 0.90625 -0.765625 2.65625q0 0.78125 0.171875 1.4375q0.171875 0.640625 0.546875 1.109375q0.390625 0.46875 0.984375 0.71875q0.609375 0.25 1.46875 0.25q0.6875 0 1.25 -0.125q0.5625 -0.125 0.875 -0.28125l0.234375 1.453125q-0.140625 0.09375 -0.421875 0.1875q-0.28125 0.078125 -0.640625 0.140625q-0.34375 0.0625 -0.75 0.109375q-0.40625 0.046875 -0.78125 0.046875zm3.925171 -5.046875q0 -1.296875 0.375 -2.25q0.375 -0.96875 0.984375 -1.59375q0.609375 -0.640625 1.40625 -0.953125q0.8125 -0.3125 1.65625 -0.3125q1.953125 0 3.0 1.21875q1.046875 1.21875 1.046875 3.71875q0 0.109375 0 0.296875q0 0.171875 -0.015625 0.3125l-6.640625 0q0.109375 1.515625 0.875 2.296875q0.765625 0.78125 2.390625 0.78125q0.90625 0 1.53125 -0.15625q0.625 -0.15625 0.9375 -0.296875l0.25 1.453125q-0.3125 0.15625 -1.109375 0.34375q-0.796875 0.1875 -1.796875 0.1875q-1.265625 0 -2.203125 -0.375q-0.921875 -0.390625 -1.515625 -1.0625q-0.59375 -0.671875 -0.890625 -1.59375q-0.28125 -0.921875 -0.28125 -2.015625zm6.65625 -0.953125q0.015625 -1.171875 -0.59375 -1.921875q-0.59375 -0.765625 -1.65625 -0.765625q-0.609375 0 -1.0625 0.234375q-0.453125 0.234375 -0.78125 0.609375q-0.3125 0.375 -0.484375 0.859375q-0.171875 0.484375 -0.234375 0.984375l4.8125 0z" fill-rule="nonzero"/><path fill="#000000" fill-opacity="0.0" d="m44.637794 272.69574l0 0c0 -5.949127 4.822731 -10.771851 10.77187 -10.771851l148.15704 0c2.8568726 0 5.5967407 1.1348877 7.616867 3.1549988c2.020111 2.020111 3.1549988 4.7599792 3.1549988 7.616852l0 43.086212c0 5.949127 -4.8227234 10.771851 -10.771866 10.771851l-148.15704 0l0 0c-5.9491386 0 -10.77187 -4.8227234 -10.77187 -10.771851z" fill-rule="evenodd"/><path stroke="#000000" stroke-width="1.0" stroke-linejoin="round" stroke-linecap="butt" d="m44.637794 272.69574l0 0c0 -5.949127 4.822731 -10.771851 10.77187 -10.771851l148.15704 0c2.8568726 0 5.5967407 1.1348877 7.616867 3.1549988c2.020111 2.020111 3.1549988 4.7599792 3.1549988 7.616852l0 43.086212c0 5.949127 -4.8227234 10.771851 -10.771866 10.771851l-148.15704 0l0 0c-5.9491386 0 -10.77187 -4.8227234 -10.77187 -10.771851z" fill-rule="evenodd"/><path fill="#000000" d="m111.42042 296.47134l1.765625 0.453125q-0.5625 2.171875 -2.0 3.328125q-1.4375 1.140625 -3.53125 1.140625q-2.15625 0 -3.515625 -0.875q-1.34375 -0.890625 -2.0625 -2.546875q-0.703125 -1.671875 -0.703125 -3.59375q0 -2.078125 0.796875 -3.625q0.796875 -1.5625 2.265625 -2.359375q1.484375 -0.8125 3.25 -0.8125q2.0 0 3.359375 1.015625q1.375 1.015625 1.90625 2.875l-1.734375 0.40625q-0.46875 -1.453125 -1.359375 -2.109375q-0.875 -0.671875 -2.203125 -0.671875q-1.546875 0 -2.578125 0.734375q-1.03125 0.734375 -1.453125 1.984375q-0.421875 1.234375 -0.421875 2.5625q0 1.703125 0.5 2.96875q0.5 1.265625 1.546875 1.90625q1.046875 0.625 2.265625 0.625q1.484375 0 2.515625 -0.859375q1.03125 -0.859375 1.390625 -2.546875zm3.1291962 -0.15625q0 -2.6875 1.484375 -3.96875q1.25 -1.078125 3.046875 -1.078125q2.0 0 3.265625 1.3125q1.265625 1.296875 1.265625 3.609375q0 1.859375 -0.5625 2.9375q-0.5625 1.0625 -1.640625 1.65625q-1.0625 0.59375 -2.328125 0.59375q-2.03125 0 -3.28125 -1.296875q-1.25 -1.3125 -1.25 -3.765625zm1.6875 0q0 1.859375 0.796875 2.796875q0.8125 0.921875 2.046875 0.921875q1.21875 0 2.03125 -0.921875q0.8125 -0.9375 0.8125 -2.84375q0 -1.796875 -0.8125 -2.71875q-0.8125 -0.921875 -2.03125 -0.921875q-1.234375 0 -2.046875 0.921875q-0.796875 0.90625 -0.796875 2.765625zm8.688217 0q0 -2.6875 1.484375 -3.96875q1.25 -1.078125 3.0468674 -1.078125q2.0 0 3.265625 1.3125q1.265625 1.296875 1.265625 3.609375q0 1.859375 -0.5625 2.9375q-0.5625 1.0625 -1.640625 1.65625q-1.0625 0.59375 -2.328125 0.59375q-2.0312424 0 -3.2812424 -1.296875q-1.25 -1.3125 -1.25 -3.765625zm1.6875 0q0 1.859375 0.796875 2.796875q0.8124924 0.921875 2.0468674 0.921875q1.21875 0 2.03125 -0.921875q0.8125 -0.9375 0.8125 -2.84375q0 -1.796875 -0.8125 -2.71875q-0.8125 -0.921875 -2.03125 -0.921875q-1.234375 0 -2.0468674 0.921875q-0.796875 0.90625 -0.796875 2.765625zm9.297585 4.84375l0 -13.359375l1.640625 0l0 7.625l3.890625 -3.9375l2.109375 0l-3.6875 3.59375l4.0625 6.078125l-2.015625 0l-3.203125 -4.953125l-1.15625 1.125l0 3.828125l-1.640625 0zm9.328125 -11.46875l0 -1.890625l1.640625 0l0 1.890625l-1.640625 0zm0 11.46875l0 -9.671875l1.640625 0l0 9.671875l-1.640625 0zm10.769821 -3.109375l1.6875 0.203125q-0.40625 1.484375 -1.484375 2.3125q-1.078125 0.8125 -2.765625 0.8125q-2.125 0 -3.375 -1.296875q-1.234375 -1.3125 -1.234375 -3.671875q0 -2.453125 1.25 -3.796875q1.265625 -1.34375 3.265625 -1.34375q1.9375 0 3.15625 1.328125q1.234375 1.3125 1.234375 3.703125q0 0.15625 0 0.4375l-7.21875 0q0.09375 1.59375 0.90625 2.453125q0.8125 0.84375 2.015625 0.84375q0.90625 0 1.546875 -0.46875q0.640625 -0.484375 1.015625 -1.515625zm-5.390625 -2.65625l5.40625 0q-0.109375 -1.21875 -0.625 -1.828125q-0.78125 -0.953125 -2.03125 -0.953125q-1.125 0 -1.90625 0.765625q-0.765625 0.75 -0.84375 2.015625z" fill-rule="nonzero"/><path fill="#000000" fill-opacity="0.0" d="m44.637794 375.26532l0 0c0 -5.9491577 4.822731 -10.771881 10.77187 -10.771881l148.15704 0c2.8568726 0 5.5967407 1.1348877 7.616867 3.1549988c2.020111 2.020111 3.1549988 4.7599792 3.1549988 7.6168823l0 43.08618c0 5.949127 -4.8227234 10.771851 -10.771866 10.771851l-148.15704 0l0 0c-5.9491386 0 -10.77187 -4.8227234 -10.77187 -10.771851z" fill-rule="evenodd"/><path stroke="#000000" stroke-width="1.0" stroke-linejoin="round" stroke-linecap="butt" d="m44.637794 375.26532l0 0c0 -5.9491577 4.822731 -10.771881 10.77187 -10.771881l148.15704 0c2.8568726 0 5.5967407 1.1348877 7.616867 3.1549988c2.020111 2.020111 3.1549988 4.7599792 3.1549988 7.6168823l0 43.08618c0 5.949127 -4.8227234 10.771851 -10.771866 10.771851l-148.15704 0l0 0c-5.9491386 0 -10.77187 -4.8227234 -10.77187 -10.771851z" fill-rule="evenodd"/><path fill="#000000" d="m86.37051 403.7284l0 -13.359375l5.921875 0q1.78125 0 2.703125 0.359375q0.9375 0.359375 1.484375 1.28125q0.5625 0.90625 0.5625 2.015625q0 1.40625 -0.921875 2.390625q-0.921875 0.96875 -2.84375 1.234375q0.703125 0.34375 1.078125 0.671875q0.765625 0.703125 1.453125 1.765625l2.328125 3.640625l-2.21875 0l-1.765625 -2.78125q-0.78125 -1.203125 -1.28125 -1.828125q-0.5 -0.640625 -0.90625 -0.890625q-0.390625 -0.265625 -0.796875 -0.359375q-0.296875 -0.078125 -0.984375 -0.078125l-2.046875 0l0 5.9375l-1.765625 0zm1.765625 -7.453125l3.796875 0q1.21875 0 1.890625 -0.25q0.6875 -0.265625 1.046875 -0.8125q0.359375 -0.546875 0.359375 -1.1875q0 -0.953125 -0.6875 -1.5625q-0.6875 -0.609375 -2.1875 -0.609375l-4.21875 0l0 4.421875zm18.097946 4.34375l1.6875 0.203125q-0.40625 1.484375 -1.484375 2.3125q-1.078125 0.8125 -2.765625 0.8125q-2.125 0 -3.375 -1.296875q-1.234375 -1.3125 -1.234375 -3.671875q0 -2.453125 1.25 -3.796875q1.265625 -1.34375 3.265625 -1.34375q1.9375 0 3.15625 1.328125q1.234375 1.3125 1.234375 3.703125q0 0.15625 0 0.4375l-7.21875 0q0.09375 1.59375 0.90625 2.453125q0.8125 0.84375 2.015625 0.84375q0.90625 0 1.546875 -0.46875q0.640625 -0.484375 1.015625 -1.515625zm-5.390625 -2.65625l5.40625 0q-0.109375 -1.21875 -0.625 -1.828125q-0.78125 -0.953125 -2.03125 -0.953125q-1.125 0 -1.90625 0.765625q-0.765625 0.75 -0.84375 2.015625zm8.485092 2.875l1.625 -0.25q0.125 0.96875 0.75 1.5q0.625 0.515625 1.75 0.515625q1.125 0 1.671875 -0.453125q0.546875 -0.46875 0.546875 -1.09375q0 -0.546875 -0.484375 -0.875q-0.328125 -0.21875 -1.671875 -0.546875q-1.8125 -0.46875 -2.515625 -0.796875q-0.6875 -0.328125 -1.046875 -0.90625q-0.359375 -0.59375 -0.359375 -1.3125q0 -0.640625 0.296875 -1.1875q0.296875 -0.5625 0.8125 -0.921875q0.375 -0.28125 1.03125 -0.46875q0.671875 -0.203125 1.421875 -0.203125q1.140625 0 2.0 0.328125q0.859375 0.328125 1.265625 0.890625q0.421875 0.5625 0.578125 1.5l-1.609375 0.21875q-0.109375 -0.75 -0.640625 -1.171875q-0.515625 -0.421875 -1.46875 -0.421875q-1.140625 0 -1.625 0.375q-0.46875 0.375 -0.46875 0.875q0 0.3125 0.1875 0.578125q0.203125 0.265625 0.640625 0.4375q0.234375 0.09375 1.4375 0.421875q1.75 0.453125 2.4375 0.75q0.6875 0.296875 1.078125 0.859375q0.390625 0.5625 0.390625 1.40625q0 0.828125 -0.484375 1.546875q-0.46875 0.71875 -1.375 1.125q-0.90625 0.390625 -2.046875 0.390625q-1.875 0 -2.875 -0.78125q-0.984375 -0.78125 -1.25 -2.328125zm9.375 -1.953125q0 -2.6875 1.484375 -3.96875q1.25 -1.078125 3.046875 -1.078125q2.0 0 3.265625 1.3125q1.265625 1.296875 1.265625 3.609375q0 1.859375 -0.5625 2.9375q-0.5625 1.0625 -1.640625 1.65625q-1.0625 0.59375 -2.328125 0.59375q-2.03125 0 -3.28125 -1.296875q-1.25 -1.3125 -1.25 -3.765625zm1.6875 0q0 1.859375 0.796875 2.796875q0.8125 0.921875 2.046875 0.921875q1.21875 0 2.03125 -0.921875q0.8125 -0.9375 0.8125 -2.84375q0 -1.796875 -0.8125 -2.71875q-0.8125 -0.921875 -2.03125 -0.921875q-1.234375 0 -2.046875 0.921875q-0.796875 0.90625 -0.796875 2.765625zm15.62571 4.84375l0 -1.421875q-1.125 1.640625 -3.0625 1.640625q-0.859375 0 -1.609375 -0.328125q-0.734375 -0.328125 -1.09375 -0.828125q-0.359375 -0.5 -0.5 -1.21875q-0.109375 -0.46875 -0.109375 -1.53125l0 -5.984375l1.640625 0l0 5.359375q0 1.28125 0.109375 1.734375q0.15625 0.640625 0.65625 1.015625q0.5 0.375 1.234375 0.375q0.734375 0 1.375 -0.375q0.65625 -0.390625 0.921875 -1.03125q0.265625 -0.65625 0.265625 -1.890625l0 -5.1875l1.640625 0l0 9.671875l-1.46875 0zm4.031967 0l0 -9.671875l1.46875 0l0 1.46875q0.5625 -1.03125 1.03125 -1.359375q0.484375 -0.328125 1.0625 -0.328125q0.828125 0 1.6875 0.53125l-0.5625 1.515625q-0.609375 -0.359375 -1.203125 -0.359375q-0.546875 0 -0.96875 0.328125q-0.421875 0.328125 -0.609375 0.890625q-0.28125 0.875 -0.28125 1.921875l0 5.0625l-1.625 0zm12.540802 -3.546875l1.609375 0.21875q-0.265625 1.65625 -1.359375 2.609375q-1.078125 0.9375 -2.671875 0.9375q-1.984375 0 -3.1875 -1.296875q-1.203125 -1.296875 -1.203125 -3.71875q0 -1.578125 0.515625 -2.75q0.515625 -1.171875 1.578125 -1.75q1.0625 -0.59375 2.3125 -0.59375q1.578125 0 2.578125 0.796875q1.0 0.796875 1.28125 2.265625l-1.59375 0.234375q-0.234375 -0.96875 -0.8125 -1.453125q-0.578125 -0.5 -1.390625 -0.5q-1.234375 0 -2.015625 0.890625q-0.78125 0.890625 -0.78125 2.8125q0 1.953125 0.75 2.84375q0.75 0.875 1.953125 0.875q0.96875 0 1.609375 -0.59375q0.65625 -0.59375 0.828125 -1.828125zm9.640625 0.4375l1.6875 0.203125q-0.40625 1.484375 -1.484375 2.3125q-1.078125 0.8125 -2.765625 0.8125q-2.125 0 -3.375 -1.296875q-1.234375 -1.3125 -1.234375 -3.671875q0 -2.453125 1.25 -3.796875q1.265625 -1.34375 3.265625 -1.34375q1.9375 0 3.15625 1.328125q1.234375 1.3125 1.234375 3.703125q0 0.15625 0 0.4375l-7.21875 0q0.09375 1.59375 0.90625 2.453125q0.8125 0.84375 2.015625 0.84375q0.90625 0 1.546875 -0.46875q0.640625 -0.484375 1.015625 -1.515625zm-5.390625 -2.65625l5.40625 0q-0.109375 -1.21875 -0.625 -1.828125q-0.78125 -0.953125 -2.03125 -0.953125q-1.125 0 -1.90625 0.765625q-0.765625 0.75 -0.84375 2.015625zm8.485092 2.875l1.625 -0.25q0.125 0.96875 0.75 1.5q0.625 0.515625 1.75 0.515625q1.125 0 1.671875 -0.453125q0.546875 -0.46875 0.546875 -1.09375q0 -0.546875 -0.484375 -0.875q-0.328125 -0.21875 -1.671875 -0.546875q-1.8125 -0.46875 -2.515625 -0.796875q-0.6875 -0.328125 -1.046875 -0.90625q-0.359375 -0.59375 -0.359375 -1.3125q0 -0.640625 0.296875 -1.1875q0.296875 -0.5625 0.8125 -0.921875q0.375 -0.28125 1.03125 -0.46875q0.671875 -0.203125 1.421875 -0.203125q1.140625 0 2.0 0.328125q0.859375 0.328125 1.265625 0.890625q0.421875 0.5625 0.578125 1.5l-1.609375 0.21875q-0.109375 -0.75 -0.640625 -1.171875q-0.515625 -0.421875 -1.46875 -0.421875q-1.140625 0 -1.625 0.375q-0.46875 0.375 -0.46875 0.875q0 0.3125 0.1875 0.578125q0.203125 0.265625 0.640625 0.4375q0.234375 0.09375 1.4375 0.421875q1.75 0.453125 2.4375 0.75q0.6875 0.296875 1.078125 0.859375q0.390625 0.5625 0.390625 1.40625q0 0.828125 -0.484375 1.546875q-0.46875 0.71875 -1.375 1.125q-0.90625 0.390625 -2.046875 0.390625q-1.875 0 -2.875 -0.78125q-0.984375 -0.78125 -1.25 -2.328125z" fill-rule="nonzero"/><path fill="#000000" fill-opacity="0.0" d="m357.65616 416.71915l120.8504 0l0 42.015747l-120.8504 0z" fill-rule="evenodd"/><path fill="#000000" d="m378.70303 430.7173q-0.703125 2.046875 -1.34375 3.796875q-0.640625 1.734375 -1.265625 3.3125q-0.609375 1.5625 -1.21875 2.984375q-0.609375 1.421875 -1.234375 2.828125l-1.703125 0q-0.640625 -1.40625 -1.25 -2.828125q-0.59375 -1.421875 -1.21875 -2.984375q-0.625 -1.578125 -1.28125 -3.3125q-0.65625 -1.75 -1.34375 -3.796875l2.0 0q1.0 2.9375 1.96875 5.671875q0.96875 2.71875 2.0 5.109375q1.03125 -2.375 2.0 -5.109375q0.96875 -2.734375 1.953125 -5.671875l1.9375 0zm3.4260254 12.921875l-1.734375 0l0 -9.703125l1.734375 0l0 9.703125zm-0.890625 -11.453125q-0.453125 0 -0.78125 -0.3125q-0.328125 -0.3125 -0.328125 -0.828125q0 -0.515625 0.328125 -0.828125q0.328125 -0.3125 0.78125 -0.3125q0.46875 0 0.796875 0.3125q0.328125 0.3125 0.328125 0.828125q0 0.515625 -0.328125 0.828125q-0.328125 0.3125 -0.796875 0.3125zm7.1575317 10.203125q0.609375 0 1.078125 -0.03125q0.484375 -0.03125 0.796875 -0.09375l0 -2.890625q-0.1875 -0.09375 -0.609375 -0.15625q-0.40625 -0.078125 -1.015625 -0.078125q-0.390625 0 -0.828125 0.0625q-0.4375 0.046875 -0.796875 0.234375q-0.359375 0.171875 -0.609375 0.484375q-0.234375 0.296875 -0.234375 0.8125q0 0.921875 0.59375 1.296875q0.59375 0.359375 1.625 0.359375zm-0.15625 -8.6875q1.046875 0 1.765625 0.265625q0.71875 0.265625 1.15625 0.765625q0.4375 0.5 0.625 1.1875q0.1875 0.671875 0.1875 1.484375l0 6.0625q-0.21875 0.046875 -0.625 0.109375q-0.40625 0.0625 -0.90625 0.109375q-0.5 0.0625 -1.09375 0.109375q-0.578125 0.046875 -1.15625 0.046875q-0.828125 0 -1.515625 -0.171875q-0.6875 -0.15625 -1.203125 -0.515625q-0.5 -0.375 -0.78125 -0.96875q-0.28125 -0.59375 -0.28125 -1.4375q0 -0.796875 0.328125 -1.375q0.328125 -0.578125 0.890625 -0.9375q0.5625 -0.359375 1.296875 -0.515625q0.75 -0.171875 1.578125 -0.171875q0.265625 0 0.53125 0.03125q0.28125 0.015625 0.53125 0.0625q0.265625 0.046875 0.4375 0.09375q0.1875 0.03125 0.265625 0.046875l0 -0.484375q0 -0.421875 -0.09375 -0.84375q-0.09375 -0.421875 -0.34375 -0.75q-0.234375 -0.328125 -0.65625 -0.515625q-0.40625 -0.203125 -1.078125 -0.203125q-0.859375 0 -1.515625 0.125q-0.640625 0.125 -0.953125 0.25l-0.203125 -1.4375q0.328125 -0.140625 1.109375 -0.28125q0.796875 -0.140625 1.703125 -0.140625zm17.235657 5.78125q0 0.921875 -0.203125 1.734375q-0.1875 0.796875 -0.6875 1.40625q-0.484375 0.609375 -1.3125 0.953125q-0.828125 0.34375 -2.078125 0.34375q-0.640625 0 -1.171875 -0.109375q-0.53125 -0.09375 -0.96875 -0.25q-0.421875 -0.171875 -0.75 -0.34375q-0.3125 -0.171875 -0.484375 -0.34375l0.703125 -1.4375q0.390625 0.28125 1.015625 0.59375q0.625 0.296875 1.5625 0.296875q1.34375 0 1.953125 -0.671875q0.609375 -0.6875 0.609375 -2.34375l0 -8.59375l1.8125 0l0 8.765625zm10.1875 -4.609375q-0.78125 2.5 -1.59375 4.625q-0.796875 2.125 -1.59375 4.140625l-1.8125 0q-0.984375 -2.859375 -1.75 -6.03125q-0.75 -3.171875 -1.40625 -6.890625l1.90625 0q0.265625 1.453125 0.546875 2.90625q0.28125 1.453125 0.578125 2.828125q0.296875 1.359375 0.59375 2.609375q0.296875 1.25 0.609375 2.328125q0.75 -1.96875 1.59375 -4.3125q0.84375 -2.34375 1.5625 -4.84375l1.578125 0q0.71875 2.5 1.578125 4.84375q0.859375 2.34375 1.609375 4.3125q0.296875 -1.046875 0.59375 -2.296875q0.296875 -1.25 0.578125 -2.625q0.296875 -1.375 0.578125 -2.828125q0.28125 -1.46875 0.546875 -2.921875l1.84375 0q-0.671875 3.71875 -1.4375 6.890625q-0.75 3.171875 -1.71875 6.03125l-1.8125 0q-0.8125 -2.015625 -1.609375 -4.140625q-0.78125 -2.125 -1.5625 -4.625zm19.264465 -4.15625l0 1.5625l-4.078125 0l0 11.359375l-1.8125 0l0 -11.359375l-4.0625 0l0 -1.5625l9.953125 0z" fill-rule="nonzero"/><path fill="#000000" fill-opacity="0.0" d="m572.6877 221.51477l0 0c0 -9.126663 7.3986206 -16.525269 16.525269 -16.525269l70.00458 0l0 0c4.3827515 0 8.585999 1.7410431 11.68512 4.8401337c3.09906 3.0990906 4.840149 7.302353 4.840149 11.685135l0 66.09906c0 9.126678 -7.3986206 16.525269 -16.525269 16.525269l-70.00458 0c-9.126648 0 -16.525269 -7.39859 -16.525269 -16.525269z" fill-rule="evenodd"/><path stroke="#000000" stroke-width="1.0" stroke-linejoin="round" stroke-linecap="butt" d="m572.6877 221.51477l0 0c0 -9.126663 7.3986206 -16.525269 16.525269 -16.525269l70.00458 0l0 0c4.3827515 0 8.585999 1.7410431 11.68512 4.8401337c3.09906 3.0990906 4.840149 7.302353 4.840149 11.685135l0 66.09906c0 9.126678 -7.3986206 16.525269 -16.525269 16.525269l-70.00458 0c-9.126648 0 -16.525269 -7.39859 -16.525269 -16.525269z" fill-rule="evenodd"/><path fill="#000000" d="m598.0994 257.18744l1.65625 -0.140625q0.125 1.0 0.546875 1.640625q0.4375 0.640625 1.34375 1.046875q0.921875 0.390625 2.0625 0.390625q1.0 0 1.78125 -0.296875q0.78125 -0.296875 1.15625 -0.8125q0.375 -0.53125 0.375 -1.15625q0 -0.625 -0.375 -1.09375q-0.359375 -0.46875 -1.1875 -0.79689026q-0.546875 -0.203125 -2.390625 -0.640625q-1.828125 -0.453125 -2.5625 -0.84375q-0.96875 -0.5 -1.4375 -1.234375q-0.46875 -0.75 -0.46875 -1.671875q0 -1.0 0.578125 -1.875q0.578125 -0.890625 1.671875 -1.34375q1.109375 -0.453125 2.453125 -0.453125q1.484375 0 2.609375 0.484375q1.140625 0.46875 1.75 1.40625q0.609375 0.921875 0.65625 2.09375l-1.6875 0.125q-0.140625 -1.265625 -0.9375 -1.90625q-0.78125 -0.65625 -2.3125 -0.65625q-1.609375 0 -2.34375 0.59375q-0.734375 0.59375 -0.734375 1.421875q0 0.71875 0.53125 1.171875q0.5 0.46875 2.65625 0.96875q2.15625 0.484375 2.953125 0.84375q1.171875 0.53125 1.71875 1.359375q0.5625 0.82814026 0.5625 1.9062653q0 1.0625 -0.609375 2.015625q-0.609375 0.9375 -1.75 1.46875q-1.140625 0.515625 -2.578125 0.515625q-1.8125 0 -3.046875 -0.53125q-1.21875 -0.53125 -1.921875 -1.59375q-0.6875 -1.0625 -0.71875 -2.40625zm19.459167 1.1875l1.6875 0.203125q-0.40625 1.484375 -1.484375 2.3125q-1.078125 0.8125 -2.765625 0.8125q-2.125 0 -3.375 -1.296875q-1.234375 -1.3125 -1.234375 -3.671875q0 -2.4531403 1.25 -3.7968903q1.265625 -1.34375 3.265625 -1.34375q1.9375 0 3.15625 1.328125q1.234375 1.3125 1.234375 3.7031403q0 0.15625 0 0.4375l-7.21875 0q0.09375 1.59375 0.90625 2.453125q0.8125 0.84375 2.015625 0.84375q0.90625 0 1.546875 -0.46875q0.640625 -0.484375 1.015625 -1.515625zm-5.390625 -2.6562653l5.40625 0q-0.109375 -1.21875 -0.625 -1.828125q-0.78125 -0.953125 -2.03125 -0.953125q-1.125 0 -1.90625 0.765625q-0.765625 0.75 -0.84375 2.015625zm15.453857 2.2187653l1.609375 0.21875q-0.265625 1.65625 -1.359375 2.609375q-1.078125 0.9375 -2.671875 0.9375q-1.984375 0 -3.1875 -1.296875q-1.203125 -1.296875 -1.203125 -3.71875q0 -1.5781403 0.515625 -2.7500153q0.515625 -1.171875 1.578125 -1.75q1.0625 -0.59375 2.3125 -0.59375q1.578125 0 2.578125 0.796875q1.0 0.796875 1.28125 2.265625l-1.59375 0.234375q-0.234375 -0.96875 -0.8125 -1.453125q-0.578125 -0.5 -1.390625 -0.5q-1.234375 0 -2.015625 0.890625q-0.78125 0.890625 -0.78125 2.8125153q0 1.953125 0.75 2.84375q0.75 0.875 1.953125 0.875q0.96875 0 1.609375 -0.59375q0.65625 -0.59375 0.828125 -1.828125zm3.0 3.546875l0 -9.67189l1.46875 0l0 1.46875q0.5625 -1.03125 1.03125 -1.359375q0.484375 -0.328125 1.0625 -0.328125q0.828125 0 1.6875 0.53125l-0.5625 1.515625q-0.609375 -0.359375 -1.203125 -0.359375q-0.546875 0 -0.96875 0.328125q-0.421875 0.328125 -0.609375 0.890625q-0.28125 0.875 -0.28125 1.9218903l0 5.0625l-1.625 0zm12.8533325 -3.109375l1.6875 0.203125q-0.40625 1.484375 -1.484375 2.3125q-1.078125 0.8125 -2.765625 0.8125q-2.125 0 -3.375 -1.296875q-1.234375 -1.3125 -1.234375 -3.671875q0 -2.4531403 1.25 -3.7968903q1.265625 -1.34375 3.265625 -1.34375q1.9375 0 3.15625 1.328125q1.234375 1.3125 1.234375 3.7031403q0 0.15625 0 0.4375l-7.21875 0q0.09375 1.59375 0.90625 2.453125q0.8125 0.84375 2.015625 0.84375q0.90625 0 1.546875 -0.46875q0.640625 -0.484375 1.015625 -1.515625zm-5.390625 -2.6562653l5.40625 0q-0.109375 -1.21875 -0.625 -1.828125q-0.78125 -0.953125 -2.03125 -0.953125q-1.125 0 -1.90625 0.765625q-0.765625 0.75 -0.84375 2.015625zm12.719421 4.2968903l0.234375 1.453125q-0.6875 0.140625 -1.234375 0.140625q-0.890625 0 -1.390625 -0.28125q-0.484375 -0.28125 -0.6875 -0.734375q-0.203125 -0.46875 -0.203125 -1.9375l0 -5.5781403l-1.203125 0l0 -1.265625l1.203125 0l0 -2.390625l1.625 -0.984375l0 3.375l1.65625 0l0 1.265625l-1.65625 0l0 5.6718903q0 0.6875 0.078125 0.890625q0.09375 0.203125 0.28125 0.328125q0.203125 0.109375 0.578125 0.109375q0.265625 0 0.71875 -0.0625z" fill-rule="nonzero"/></g></svg>